<svg width="43" height="16" viewBox="0 0 43 16" fill="none" xmlns="http://www.w3.org/2000/svg">
<path d="M22.6952 12.4823L23.2044 11.0505L23.7136 12.4823H22.6952ZM16.8032 10.2428H17.6033C17.967 10.2428 18.1489 10.4631 18.1489 10.7201C18.1489 10.9771 17.967 11.1973 17.6033 11.1973H16.8032V10.2428ZM41.0987 8.40718C40.5532 8.40718 40.0803 8.84773 40.0803 9.43513V11.491L38.3709 8.92115C38.1891 8.62745 37.8981 8.40718 37.498 8.40718C36.9525 8.40718 36.4797 8.84773 36.4797 9.43513V14.171C36.4797 14.7217 36.9161 15.199 37.498 15.199C38.0436 15.199 38.5164 14.7584 38.5164 14.171V12.0417L40.2258 14.6483C40.4077 14.942 40.735 15.1623 41.1351 15.1623C41.6806 15.1623 42.1171 14.7217 42.1171 14.1343V9.43513C42.1171 8.84773 41.6443 8.40718 41.0987 8.40718ZM35.3522 10.3529C35.8614 10.3529 36.2978 9.91239 36.2978 9.39842C36.2978 8.88444 35.8614 8.44389 35.3522 8.44389H32.6244C32.0788 8.44389 31.606 8.88444 31.606 9.47184V14.2078C31.606 14.7585 32.0424 15.2357 32.6244 15.2357H35.3522C35.8614 15.2357 36.2978 14.7952 36.2978 14.2812C36.2978 13.7305 35.8614 13.3267 35.3522 13.3267H33.6427V12.7025H35.0248C35.4976 12.7025 35.8614 12.3354 35.8614 11.8582C35.8614 11.3809 35.4613 11.0138 35.0248 11.0138H33.6427V10.3529H35.3522ZM30.4058 8.40718C29.933 8.40718 29.6056 8.66417 29.4601 9.068L28.3327 12.0784L27.1688 9.068C27.0233 8.66417 26.6596 8.40718 26.2232 8.40718C25.4957 8.40718 25.0593 9.14143 25.3139 9.87568L27.1324 14.3179C27.3143 14.7952 27.678 15.1623 28.3327 15.1623C28.9873 15.1623 29.351 14.7952 29.5329 14.3179L31.315 9.87568C31.606 9.17814 31.1696 8.40718 30.4058 8.40718ZM24.4046 9.21486C24.1864 8.73759 23.8227 8.40718 23.2408 8.40718C22.6225 8.40718 22.2951 8.73759 22.0769 9.21486L20.1856 13.6938C19.8947 14.3546 20.2948 15.1623 21.1313 15.1623C21.5314 15.1623 21.9314 14.9053 22.0405 14.5015L22.1497 14.1343H24.2955L24.441 14.5382C24.5865 14.9053 24.9138 15.199 25.3866 15.199C26.1868 15.199 26.5505 14.3913 26.2959 13.7672L24.4046 9.21486ZM18.9854 12.4823C19.6765 12.1519 20.1493 11.5277 20.1493 10.6466C20.1493 9.21485 18.9854 8.40718 17.6397 8.40718H15.7848C15.2393 8.40718 14.7664 8.84773 14.7664 9.43513V14.171C14.7664 14.7217 15.2029 15.199 15.7848 15.199C16.3667 15.199 16.8032 14.7584 16.8032 14.171V12.8494L18.1125 14.7217C18.3308 15.0154 18.6217 15.1623 18.949 15.1623C19.8219 15.1623 20.2584 14.2078 19.7492 13.5469L18.9854 12.4823ZM24.3319 8.51732C24.3319 8.73759 24.5137 8.92115 24.732 8.92115C24.9866 8.92115 25.1684 8.73759 25.1684 8.51732C25.1684 8.29704 24.9866 8.11348 24.732 8.11348C24.5137 8.07677 24.3319 8.26033 24.3319 8.51732ZM21.6768 8.07677C21.4222 8.07677 21.2404 8.26033 21.2404 8.4806C21.2404 8.70088 21.4222 8.88444 21.6768 8.88444C21.8951 8.88444 22.0769 8.70088 22.0769 8.4806C22.1133 8.26033 21.8951 8.07677 21.6768 8.07677ZM2.65505 7.48936C2.25497 7.37923 1.8549 7.34251 1.38208 7.34251C1.41845 7.08553 1.52756 6.90196 1.67304 6.75511C2.07312 6.86525 2.40046 7.12224 2.65505 7.48936ZM24.732 5.36004L25.2412 3.92825L25.7503 5.36004H24.732ZM34.2974 8.04005H36.8797C37.3889 8.04005 37.8254 7.5995 37.8254 7.08553C37.8254 6.57155 37.3889 6.131 36.8797 6.131H35.3158V2.31289C35.3158 1.76221 34.8793 1.28494 34.2974 1.28494C33.7519 1.28494 33.279 1.72549 33.279 2.31289V7.04881C33.279 7.5995 33.7155 8.04005 34.2974 8.04005ZM29.5693 8.04005H32.1516C32.6607 8.04005 33.0972 7.5995 33.0972 7.08553C33.0972 6.57155 32.6607 6.131 32.1516 6.131H30.5876V2.31289C30.5876 1.76221 30.1512 1.28494 29.5693 1.28494C29.0237 1.28494 28.5509 1.72549 28.5509 2.31289V7.04881C28.5872 7.5995 29.0237 8.04005 29.5693 8.04005ZM23.0953 8.04005C23.4954 8.04005 23.8954 7.78306 24.0046 7.37923L24.15 7.0121H26.2959L26.4414 7.41594C26.5505 7.78307 26.9142 8.07677 27.387 8.07677C28.1508 8.07677 28.5509 7.26909 28.2963 6.64498L26.405 2.12933C26.1868 1.65207 25.8231 1.32166 25.2412 1.32166C24.6229 1.32166 24.2955 1.65207 24.0773 2.12933L22.186 6.60826C21.8951 7.23238 22.2951 8.04005 23.0953 8.04005ZM18.4035 5.8373C17.8943 5.8373 17.4579 6.27785 17.4579 6.79183C17.4579 7.04881 17.5306 7.3058 17.7488 7.48936C18.1125 7.85649 18.7308 8.11348 19.6765 8.11348C21.2404 8.11348 22.1133 7.0121 22.1133 5.72716V2.31289C22.1133 1.76221 21.6768 1.28494 21.0949 1.28494C20.5494 1.28494 20.0765 1.72549 20.0765 2.31289V5.72716C20.0765 6.05757 19.8947 6.20442 19.6401 6.20442C19.3855 6.20442 19.24 6.131 18.9854 5.98415C18.7672 5.87401 18.5853 5.8373 18.4035 5.8373ZM15.7848 8.04005C16.3667 8.04005 16.8032 7.5995 16.8032 7.0121V5.61702H18.258C18.7308 5.61702 19.1309 5.2499 19.1309 4.73592C19.1309 4.25866 18.7308 3.85482 18.258 3.85482H16.8032V3.23071H18.5126C19.0218 3.23071 19.4582 2.79016 19.4582 2.27618C19.4582 1.72549 19.0218 1.32166 18.5126 1.32166H15.7848C15.2393 1.32166 14.7664 1.76221 14.7664 2.34961V7.08553C14.7664 7.5995 15.2029 8.04005 15.7848 8.04005ZM26.7687 1.83563C27.0233 1.83563 27.2052 1.65207 27.2052 1.43179C27.2052 1.21152 27.0233 1.02795 26.7687 1.02795C26.5505 1.02795 26.3686 1.21152 26.3686 1.43179C26.3686 1.65207 26.5505 1.83563 26.7687 1.83563ZM23.7136 1.83563C23.9318 1.83563 24.1137 1.65207 24.1137 1.43179C24.1137 1.21152 23.9318 1.02795 23.7136 1.02795C23.459 1.02795 23.2771 1.21152 23.2771 1.43179C23.2771 1.61536 23.4954 1.83563 23.7136 1.83563ZM7.23774 1.02795C7.20137 0.734254 7.165 0.367129 7.165 3.24363e-06L6.43759 0.95453H6.18299C4.80091 0.95453 3.30972 1.24823 2.10949 1.94577V1.98248C2.69142 1.76221 3.30972 1.65207 3.92802 1.65207C4.54632 1.65207 5.12825 1.76221 5.63743 1.98248L5.27373 2.45974C4.80091 2.27618 4.25535 2.16604 3.7098 2.16604C2.94601 2.16604 2.18223 2.34961 1.67304 2.68002L0.254594 0.770967C0.109112 2.45974 0 4.3688 0 5.32332C0 7.52608 0.509188 7.96663 1.09112 8.44389C1.56393 8.81102 2.07312 9.28828 2.40046 10.6834C2.61868 11.5645 2.76416 11.748 3.27335 11.748C3.70979 11.748 3.89165 11.6012 4.0735 10.8302C4.43721 9.43513 5.20099 8.70088 5.9284 8.07677C6.72855 7.34251 7.45596 6.75511 7.45596 5.36004C7.45596 4.55236 7.34685 3.85482 7.09226 3.01043C7.67418 3.67126 8.03789 4.55236 8.03789 5.58031C8.03789 6.68169 7.63781 7.41594 6.32847 8.59074C5.34647 9.47184 5.05551 9.83897 4.61906 11.1973C4.32809 12.1519 3.78254 13.1798 2.25497 13.1798C1.81853 13.1798 1.30934 13.1064 0.836522 12.8861V12.9228C2.14586 14.5749 4.25535 15.5294 6.47396 15.5294C10.5838 15.5294 13.6753 12.3354 13.6753 8.22362C13.7117 4.44222 11.1294 1.46851 7.23774 1.02795Z" fill="#B83228"/>
</svg>
