<svg width="22" height="20" viewBox="0 0 22 20" fill="none" xmlns="http://www.w3.org/2000/svg">
<path fill-rule="evenodd" clip-rule="evenodd" d="M11.8377 0.45601L14.6356 5.54812C14.7955 5.77613 15.0353 5.92813 15.2752 6.00413L21.2708 6.99215C21.9903 7.06815 22.2301 7.90417 21.7505 8.43618L17.5135 12.5403C17.3537 12.7683 17.2737 12.9963 17.2737 13.3003L18.1531 19.0004C18.233 19.6844 17.5135 20.2164 16.874 19.9124L11.438 17.3284C11.1182 17.2524 10.8784 17.2524 10.6385 17.3284L5.2025 19.9124C4.48302 20.2164 3.76354 19.6844 3.84349 19.0004L4.72285 13.3003C4.80279 12.9963 4.6429 12.7683 4.48302 12.5403L0.246103 8.43618C-0.233548 7.90417 0.00627732 7.06815 0.805696 6.99215L6.72139 6.00413C7.04116 5.92813 7.20104 5.77613 7.36093 5.54812L10.1589 0.45601C10.5586 -0.152003 11.5179 -0.152003 11.8377 0.45601Z" fill="#F6CD46"/>
</svg>
