<svg width="24" height="24" viewBox="0 0 24 24" fill="none" xmlns="http://www.w3.org/2000/svg">
<path d="M11.9863 0.00488281C5.35753 0.00488281 -0.0136719 5.37609 -0.0136719 12.0049C-0.0136719 18.6337 5.35753 24.0049 11.9863 24.0049C18.6151 24.0049 23.9863 18.6337 23.9863 12.0049C23.9863 5.38089 18.6151 0.00488281 11.9863 0.00488281ZM15.5143 7.28649C15.5143 7.28649 14.3191 7.28649 13.8487 7.28649C13.2583 7.28649 13.1383 7.52649 13.1383 8.13609C13.1383 8.64489 13.1383 9.60489 13.1383 9.60489H15.5143L15.2839 12.1873H13.1335V19.9009H10.0519V12.2209H8.44873V9.60489H10.0519C10.0519 9.60489 10.0519 9.23049 10.0519 7.54569C10.0519 5.61609 11.0887 4.60809 13.3783 4.60809C13.7527 4.60809 15.5095 4.60809 15.5095 4.60809V7.28649H15.5143Z" fill="#303030"/>
</svg>
