<svg width="40" height="40" viewBox="0 0 40 40" fill="none" xmlns="http://www.w3.org/2000/svg">
<rect x="39.5" y="39.5" width="39" height="39" rx="19.5" transform="rotate(180 39.5 39.5)" fill="white" stroke="#D2D2D2"/>
<path d="M27.5886 11C27.9511 11 28.3137 11.145 28.5868 11.44C29.1377 12.0251 29.1377 12.9751 28.5868 13.5602L22.9929 19.5006L28.5868 25.4411C29.1377 26.0261 29.1377 26.9762 28.5868 27.5612C28.0359 28.1463 27.1413 28.1463 26.5903 27.5612L19 19.5006L26.5903 11.44C26.8634 11.145 27.226 11 27.5886 11Z" fill="#303030"/>
<path d="M13.4114 28C13.0489 28 12.6863 27.855 12.4132 27.56C11.8623 26.9749 11.8623 26.0249 12.4132 25.4398L18.0071 19.4994L12.4132 13.5589C11.8623 12.9739 11.8623 12.0238 12.4132 11.4388C12.9641 10.8537 13.8587 10.8537 14.4097 11.4388L22 19.4994L14.4097 27.56C14.1366 27.855 13.774 28 13.4114 28Z" fill="#303030"/>
</svg>
