<svg width="16" height="16" viewBox="0 0 16 16" fill="none" xmlns="http://www.w3.org/2000/svg">
<path d="M4.00543 0C3.8082 0 3.64829 0.159893 3.64829 0.357143V2.32143C3.64829 2.51866 3.8082 2.67857 4.00543 2.67857C4.20268 2.67857 4.36258 2.51866 4.36258 2.32143V0.357143C4.36258 0.159893 4.20268 0 4.00543 0ZM11.1483 0C10.9511 0 10.7911 0.159893 10.7911 0.357143V2.32143C10.7911 2.51866 10.9511 2.67857 11.1483 2.67857C11.3455 2.67857 11.5054 2.51866 11.5054 2.32143V0.357143C11.5054 0.159893 11.3455 0 11.1483 0ZM1.50543 1.42857C0.711593 1.42857 0.0712891 2.06882 0.0712891 2.86271V6.07143H15.0713V2.86271C15.0713 2.06882 14.431 1.42857 13.6371 1.42857H12.5713H11.8626V2.6953C12.2886 2.94352 12.5769 3.40336 12.5769 3.92857C12.5769 4.71332 11.9331 5.35714 11.1483 5.35714C10.3636 5.35714 9.71972 4.71332 9.71972 3.92857C9.71972 3.40336 10.008 2.94352 10.434 2.6953V1.42857H4.71415V2.68973C5.14381 2.93698 5.434 3.40062 5.434 3.92857C5.434 4.71332 4.79025 5.35714 4.00543 5.35714C3.22074 5.35714 2.57686 4.71332 2.57686 3.92857C2.57686 3.40505 2.86182 2.94409 3.28557 2.6953V1.42857H1.50543ZM4.00543 3.21429C3.60679 3.21429 3.29115 3.52984 3.29115 3.92857C3.29115 4.32729 3.60679 4.64286 4.00543 4.64286C4.40415 4.64286 4.71972 4.32729 4.71972 3.92857C4.71972 3.52984 4.40415 3.21429 4.00543 3.21429ZM11.1483 3.21429C10.7496 3.21429 10.434 3.52984 10.434 3.92857C10.434 4.32729 10.7496 4.64286 11.1483 4.64286C11.547 4.64286 11.8626 4.32729 11.8626 3.92857C11.8626 3.52984 11.547 3.21429 11.1483 3.21429ZM0.0712891 6.78571V14.2801C0.0712891 15.074 0.711575 15.7143 1.50543 15.7143H13.6371C14.431 15.7143 15.0713 15.074 15.0713 14.2801V6.78571H0.0712891Z" fill="#303030"/>
</svg>
