<svg width="19" height="24" viewBox="0 0 19 24" fill="none" xmlns="http://www.w3.org/2000/svg">
<path d="M9.49987 0C7.00017 0.00294857 4.6037 0.997262 2.83613 2.76483C1.06857 4.5324 0.0742476 6.92887 0.071299 9.42857C0.0683162 11.4713 0.735585 13.4587 1.97073 15.0857C1.97073 15.0857 2.22787 15.4243 2.26987 15.4731L9.49987 24L16.7333 15.4689C16.771 15.4234 17.029 15.0857 17.029 15.0857L17.0299 15.0831C18.2644 13.4568 18.9314 11.4704 18.9284 9.42857C18.9255 6.92887 17.9312 4.5324 16.1636 2.76483C14.3961 0.997262 11.9996 0.00294857 9.49987 0ZM9.49987 12.8571C8.82177 12.8571 8.15889 12.6561 7.59506 12.2793C7.03123 11.9026 6.59179 11.3671 6.33228 10.7406C6.07281 10.1141 6.00489 9.42477 6.1372 8.75969C6.26947 8.09462 6.59601 7.48371 7.07553 7.00419C7.55501 6.52471 8.16592 6.19817 8.83099 6.06586C9.49606 5.93359 10.1854 6.00147 10.812 6.26098C11.4384 6.52049 11.9739 6.95993 12.3506 7.52376C12.7274 8.08759 12.9284 8.75047 12.9284 9.42857C12.9273 10.3375 12.5657 11.209 11.923 11.8517C11.2803 12.4944 10.4089 12.856 9.49987 12.8571Z" fill="#303030"/>
</svg>
