<svg width="17" height="16" viewBox="0 0 17 16" fill="none" xmlns="http://www.w3.org/2000/svg">
<path fill-rule="evenodd" clip-rule="evenodd" d="M11.3533 11.4214C10.255 12.3022 8.86064 12.8291 7.34324 12.8291C3.8006 12.8291 0.928711 9.95718 0.928711 6.41453C0.928711 2.87188 3.8006 0 7.34324 0C10.8859 0 13.7578 2.87188 13.7578 6.41453C13.7578 7.9321 13.2308 9.32658 12.3498 10.425L16.9287 15.0039L15.9322 16.0003L11.3533 11.4214ZM12.3485 6.41453C12.3485 9.17887 10.1076 11.4198 7.34324 11.4198C4.5789 11.4198 2.33796 9.17887 2.33796 6.41453C2.33796 3.65019 4.5789 1.40925 7.34324 1.40925C10.1076 1.40925 12.3485 3.65019 12.3485 6.41453Z" fill="#303030"/>
</svg>
