<svg width="28" height="33" viewBox="0 0 28 33" fill="none" xmlns="http://www.w3.org/2000/svg">
<path d="M1.85674 18.3604C2.48276 20.0296 3.45084 21.5495 4.69884 22.8225L5.66516 23.7888L13.7936 31.8888L15.2146 30.4677L20.1173 25.5509L22.8315 22.8367C27.0873 18.5831 27.8026 11.9381 24.5495 6.87624C21.2964 1.81435 14.9548 -0.295366 9.3176 1.80893C3.68045 3.91322 0.272474 9.66235 1.132 15.6177C1.26889 16.5565 1.51203 17.4766 1.85674 18.3604ZM13.7936 9.52143C15.8452 9.5095 17.6143 10.9606 18.0039 12.9749C18.3936 14.9892 17.2932 16.9953 15.3852 17.7493C14.8769 17.9438 14.3377 18.0449 13.7936 18.0477C11.4391 18.0477 9.53042 16.1391 9.53042 13.7846C9.53042 11.4301 11.4391 9.52143 13.7936 9.52143Z" fill="#6D7D58" stroke="#E6E6E6"/>
<path d="M20.583 7.99512H6.58301V21.9951H20.583V7.99512Z" fill="#6D7D58"/>
<mask id="mask0" mask-type="alpha" maskUnits="userSpaceOnUse" x="6" y="4" width="17" height="20">
<path d="M6.58301 4.99512H22.583V23.6964H6.58301V4.99512Z" fill="white"/>
</mask>
<g mask="url(#mask0)">
<path fill-rule="evenodd" clip-rule="evenodd" d="M8.83839 13.489C8.93403 13.4993 9.08419 13.5136 9.19232 13.522C9.30045 13.5305 9.36646 13.533 9.41096 13.5332C9.51526 13.5438 9.59139 13.4911 9.56832 13.4129C9.46557 13.2657 9.2711 13.1913 9.03824 13.0776C8.93612 13.0327 8.85808 12.9997 8.77383 12.9813C8.66944 12.9407 8.60225 13.0488 8.59276 13.1543C8.5903 13.229 8.53587 13.3497 8.62467 13.451C8.6347 13.4564 8.64765 13.4616 8.67473 13.4671C8.70172 13.4728 8.74274 13.4788 8.83839 13.489ZM6.79254 5.80656C6.85062 5.8413 6.90332 5.88441 6.96586 5.9538C7.02832 6.0231 7.10052 6.1186 7.18705 6.24902C7.27366 6.37926 7.37459 6.54442 7.47844 6.71294C7.58229 6.88174 7.68896 7.05391 7.78652 7.2007C7.88407 7.34767 7.97251 7.46909 8.0428 7.55294C8.23117 7.7734 8.33821 7.79796 8.45646 7.78131C8.58538 7.75421 8.67655 7.69973 8.8031 7.64198C8.87969 7.60642 8.97697 7.5634 9.1089 7.5172C9.49201 7.38132 10.0573 7.261 10.5275 7.277C10.672 7.28073 10.8128 7.29483 10.9784 7.32694C11.1441 7.35913 11.3345 7.40924 11.4739 7.4489C11.6131 7.48855 11.7011 7.51784 11.7889 7.54439C11.8769 7.57095 11.9648 7.59487 12.0372 7.6086C12.1907 7.63043 12.2889 7.65562 12.3989 7.51874C12.467 7.41916 12.5583 7.20652 12.4108 7.07428C12.3792 7.04763 12.334 7.01971 12.2414 6.98051C12.0473 6.8983 11.699 6.78716 11.4085 6.73987C11.2585 6.71458 11.1136 6.70167 10.9562 6.69903C10.4177 6.69194 9.79188 6.80089 9.15813 6.99634C9.27064 6.88711 9.39682 6.79234 9.55437 6.70258C9.71165 6.6129 9.90029 6.52841 10.1729 6.43792C10.4454 6.34761 10.8019 6.25129 11.1733 6.17353C11.5448 6.09586 11.9313 6.03647 12.251 6.00455C12.5707 5.97254 12.8236 5.9679 12.982 5.9669C13.1401 5.96599 13.2038 5.96881 13.2788 5.96408C13.438 5.95607 13.5927 5.90842 13.7371 5.73643C13.8136 5.65131 13.9002 5.53717 13.964 5.45168C14.0795 5.28561 14.2057 5.15964 14.4251 4.99512L14.5928 6.1437C15.1856 6.16689 15.774 6.28649 16.3625 6.5134C16.951 6.74032 17.5397 7.07465 18.1053 7.48737C18.671 7.90018 19.2134 8.39139 19.6753 8.97055C20.1371 9.54989 20.5182 10.2173 20.825 10.9087C21.1318 11.6 21.3646 12.3156 21.4844 13.0317C21.6042 13.7478 21.6114 14.4645 21.5247 15.2191C21.4381 15.9739 21.2575 16.7667 21.0121 17.4606C20.7666 18.1545 20.4562 18.7496 20.0563 19.3053C19.6565 19.8611 19.1672 20.3777 18.6185 20.8081C18.07 21.2383 17.4622 21.5823 16.8026 21.8609C16.1429 22.1395 15.4316 22.3526 14.737 22.455C14.0424 22.5575 13.3647 22.5491 12.6503 22.4448C11.936 22.3404 11.1852 22.1401 10.5038 21.8603C9.82242 21.5807 9.21065 21.2217 8.7422 20.8701C8.27384 20.5187 7.94862 20.1744 7.68987 19.784C8.09623 19.8719 8.55766 19.8831 9.00341 19.8205C9.21803 19.7903 9.41779 19.7439 9.59668 19.6847C10.0827 19.5186 10.4777 19.258 10.8828 18.6784C11.0155 18.4858 11.1519 18.2504 11.3014 17.9417C11.4508 17.6329 11.6133 17.2503 11.7266 16.9854C11.8398 16.7207 11.9041 16.5731 11.9934 16.3961C12.0828 16.2191 12.1973 16.0125 12.3317 15.8244C12.4662 15.6361 12.6205 15.4665 12.8235 15.273C13.0266 15.0793 13.2782 14.8619 13.4812 14.6845C13.6844 14.507 13.8388 14.3696 13.9997 14.2095C14.1607 14.0493 14.3282 13.8666 14.4656 13.6848C14.603 13.5032 14.7103 13.3227 14.8103 13.1092C15.0934 12.4953 15.3224 11.6585 15.2856 10.9652C15.2761 10.7396 15.2448 10.511 15.1904 10.2699C15.1359 10.029 15.0583 9.77517 14.9835 9.5739C14.9087 9.37281 14.8365 9.22411 14.7818 9.1318C14.6809 8.965 14.6319 8.96054 14.5686 8.9911C14.5398 9.00793 14.5101 9.0383 14.4894 9.08451C14.4688 9.13089 14.4572 9.19301 14.4725 9.32925C14.4879 9.4654 14.53 9.6754 14.5592 9.81646C14.5883 9.95734 14.6041 10.0291 14.6291 10.199C14.6822 10.5353 14.7368 11.1367 14.6534 11.5965C14.5865 12.0234 14.4673 12.4202 14.2467 12.8047C14.0509 13.158 13.6962 13.5621 13.2548 13.9645C13.0403 14.1604 12.8215 14.3407 12.6684 14.4676C12.5152 14.5945 12.4277 14.6681 12.2868 14.8211C12.1458 14.974 11.9515 15.2061 11.7828 15.4329C11.6143 15.6597 11.4715 15.8811 11.3391 16.1567C11.2067 16.4321 11.0846 16.7616 11.0115 16.962C10.9385 17.1622 10.9145 17.2333 10.866 17.3547C10.8175 17.4762 10.7447 17.6477 10.6757 17.7722C10.4377 18.1709 10.2438 18.1855 10.0147 18.1904C9.86382 18.1796 9.68812 18.1325 9.53176 17.9977C9.46675 17.9402 9.41169 17.8697 9.3568 17.7492C9.30173 17.6287 9.24675 17.4579 9.19934 17.286C9.06249 16.8007 8.94798 16.0814 8.57471 15.4538C8.46147 15.2593 8.32754 15.0693 8.15705 14.8722C7.98637 14.6751 7.77895 14.4708 7.64428 14.345C7.50953 14.2193 7.44762 14.172 7.36465 14.0961C7.28178 14.0203 7.17802 13.9164 7.08785 13.8039C6.99768 13.6914 6.9211 13.5703 6.85627 13.4283C6.79154 13.2862 6.73866 13.1229 6.69435 12.9028C6.65022 12.6828 6.61466 12.4058 6.59624 11.9247C6.57774 11.4436 6.57609 10.7581 6.60782 9.70414C6.63964 8.65005 6.70483 7.22753 6.79254 5.80656Z" fill="white"/>
</g>
</svg>
