<svg width="81" height="80" viewBox="0 0 81 80" fill="none" xmlns="http://www.w3.org/2000/svg">
<path d="M40.25 5C32.9592 5.0086 25.9695 7.90868 20.8141 13.0641C15.6587 18.2195 12.7586 25.2092 12.75 32.5C12.7413 38.4581 14.6875 44.2545 18.29 49C18.29 49 19.04 49.9875 19.1625 50.13L40.25 75L61.3475 50.1175C61.4575 49.985 62.21 49 62.21 49L62.2125 48.9925C65.8133 44.249 67.7586 38.4553 67.75 32.5C67.7414 25.2092 64.8414 18.2195 59.686 13.0641C54.5306 7.90868 47.5408 5.0086 40.25 5ZM40.25 42.5C38.2722 42.5 36.3388 41.9135 34.6943 40.8147C33.0498 39.7159 31.7681 38.1541 31.0112 36.3268C30.2544 34.4996 30.0563 32.4889 30.4422 30.5491C30.828 28.6093 31.7804 26.8275 33.179 25.4289C34.5775 24.0304 36.3593 23.078 38.2991 22.6921C40.2389 22.3063 42.2496 22.5043 44.0769 23.2612C45.9041 24.0181 47.4659 25.2998 48.5647 26.9443C49.6635 28.5888 50.25 30.5222 50.25 32.5C50.2467 35.1511 49.1921 37.6928 47.3174 39.5674C45.4428 41.4421 42.9012 42.4967 40.25 42.5Z" fill="#B93228"/>
</svg>
