<svg width="24" height="24" viewBox="0 0 24 24" fill="none" xmlns="http://www.w3.org/2000/svg">
<path d="M8.01893 10.7174C7.41097 10.1546 6.46193 10.1913 5.89919 10.7993C5.33645 11.4072 5.37311 12.3563 5.98107 12.919L8.01893 10.7174ZM10.4375 15L9.41857 16.1008L10.4375 17.044L11.4564 16.1008L10.4375 15ZM19.0189 9.10081C19.6269 8.53807 19.6635 7.58903 19.1008 6.98107C18.5381 6.37311 17.589 6.33645 16.9811 6.89919L19.0189 9.10081ZM5.98107 12.919L9.41857 16.1008L11.4564 13.8992L8.01893 10.7174L5.98107 12.919ZM11.4564 16.1008L19.0189 9.10081L16.9811 6.89919L9.41857 13.8992L11.4564 16.1008Z" fill="white"/>
</svg>
