<svg width="250" height="250" viewBox="0 0 250 250" fill="none" xmlns="http://www.w3.org/2000/svg">
<g filter="url(#filter0_d_192_14172)">
<path d="M190 30.0001L60 30L60.0001 170.886C60.0002 217.658 125 219.5 125 219.5C125 219.5 190 217.658 190 170.886L190 30.0001Z" fill="#CD1719"/>
<path d="M125.469 214.475C125.261 214.486 125.103 214.493 125 214.497C124.896 214.493 124.739 214.486 124.531 214.475C124.098 214.452 123.445 214.412 122.604 214.345C120.922 214.211 118.497 213.968 115.577 213.535C109.713 212.666 101.978 211.047 94.3093 208.071C78.8773 202.082 65.0002 191.235 65.0001 170.886L65 35L185 35.0001L185 170.886C185 191.235 171.123 202.082 155.691 208.071C148.022 211.047 140.287 212.666 134.423 213.535C131.503 213.968 129.078 214.211 127.396 214.345C126.555 214.412 125.902 214.452 125.469 214.475Z" stroke="white" stroke-width="10"/>
</g>
<rect x="125" y="40" width="55" height="80" fill="#317EA8"/>
<rect x="70" y="40" width="55" height="80" fill="#EAE4DB"/>
<path d="M180 120H125V210C125 210 180 209.5 180 171.5C180 133.5 180 120 180 120Z" fill="#EAE4DB"/>
<path d="M70 120H125V210C125 210 70 209.5 70 171.5C70 133.5 70 120 70 120Z" fill="#A5A87D"/>
<circle cx="125" cy="119" r="45" fill="#EAE4DB"/>
<path d="M127.815 90.3154C127.747 89.0342 127.61 87.6183 127.474 86H127.406L124.277 90.0456H123.325C117.475 90.0456 111.149 91.2593 105.911 94.2261L105.979 94.361C108.428 93.4844 111.081 93.0125 113.666 93.0125C116.251 93.0125 118.767 93.4844 121.012 94.361L119.516 96.3164C117.543 95.5073 115.162 95.0353 112.781 95.0353C109.516 95.0353 106.319 95.9118 104.074 97.2604L98.0884 89.2365H98.0203C97.4081 96.3164 97 104.205 97 108.251C97 117.421 99.1767 119.242 101.694 121.332C103.666 122.95 105.911 124.838 107.34 130.772C108.224 134.413 108.836 135.222 111.013 135.222C112.849 135.222 113.666 134.548 114.482 131.446C116.047 125.58 119.312 122.613 122.305 119.983C125.706 116.949 128.835 114.387 128.835 108.588C128.835 105.149 128.359 102.25 127.338 98.6763C129.855 101.441 131.42 105.082 131.42 109.465C131.42 114.05 129.719 117.219 124.209 122.006C119.992 125.715 118.699 127.266 116.931 132.862C115.638 136.908 113.326 141.156 106.931 141.156C105.027 141.156 102.85 140.818 100.945 140.009L100.877 140.144C106.523 147.022 115.366 151 124.89 151C142.44 151 155.5 137.649 155.5 120.388C155.5 104.61 144.48 92.2033 127.815 90.3154ZM108.36 117.421C106.591 116.949 104.891 116.747 102.918 116.747L102.85 116.679C103.054 115.668 103.53 114.791 104.074 114.185C105.775 114.724 107.203 115.735 108.36 117.286V117.421Z" fill="#CD1719"/>
<defs>
<filter id="filter0_d_192_14172" x="56" y="26" width="146" height="205.5" filterUnits="userSpaceOnUse" color-interpolation-filters="sRGB">
<feFlood flood-opacity="0" result="BackgroundImageFix"/>
<feColorMatrix in="SourceAlpha" type="matrix" values="0 0 0 0 0 0 0 0 0 0 0 0 0 0 0 0 0 0 127 0" result="hardAlpha"/>
<feOffset dx="4" dy="4"/>
<feGaussianBlur stdDeviation="4"/>
<feColorMatrix type="matrix" values="0 0 0 0 0 0 0 0 0 0 0 0 0 0 0 0 0 0 0.25 0"/>
<feBlend mode="normal" in2="BackgroundImageFix" result="effect1_dropShadow_192_14172"/>
<feBlend mode="normal" in="SourceGraphic" in2="effect1_dropShadow_192_14172" result="shape"/>
</filter>
</defs>
</svg>
