<svg width="64" height="74" viewBox="0 0 64 74" fill="none" xmlns="http://www.w3.org/2000/svg">
<path d="M58.6665 27.0002C56.1279 27.0122 53.6203 26.4417 51.3367 25.3328C49.0531 24.2238 47.0542 22.6059 45.4939 20.6034C43.9335 18.6009 42.8532 16.2672 42.3361 13.7818C41.819 11.2964 41.8788 8.7255 42.5109 6.26683C39.3103 4.72129 36.2014 2.99249 33.1998 1.08905L31.9998 0.333496L30.7998 1.11127C26.4846 3.83013 21.9677 6.21486 17.2887 8.2446C12.5249 10.37 7.5979 12.109 2.5553 13.4446L0.888672 13.8668V32.4002C0.888672 62.1557 30.9553 73.289 31.2442 73.4002L31.9998 73.6668L32.7553 73.4002C33.0665 73.4002 63.1109 62.1779 63.1109 32.4002V26.3779C61.6643 26.785 60.1692 26.9943 58.6665 27.0002Z" fill="#235F83"/>
</svg>
