<svg width="14" height="17" viewBox="0 0 14 17" fill="none" xmlns="http://www.w3.org/2000/svg">
<path d="M7.06743 3.87714L7.81978 3.36177V1.30029H6.31508V3.36177L7.06743 3.87714Z" fill="#B93228"/>
<path d="M7.06743 7.81826L6.31508 8.33363V15.7004H7.81978V8.33363L7.06743 7.81826Z" fill="#B93228"/>
<path d="M12.3038 3.66485L11.1602 1.87622L7.06742 4.54401L2.97463 1.87622L1.83105 3.66485L5.11131 5.81727L1.83105 7.93938L2.97463 9.72801L7.06742 7.09053L11.1602 9.72801L12.3038 7.93938L9.02353 5.81727L12.3038 3.66485Z" fill="#B93228"/>
<path fill-rule="evenodd" clip-rule="evenodd" d="M7.06764 4.54389L11.1604 1.8761L12.304 3.66473L9.02375 5.81715L12.304 7.93926L11.1604 9.72789L7.06764 7.09042L2.97485 9.72789L1.83127 7.93926L5.11153 5.81715L1.83127 3.66473L2.97485 1.8761L7.06764 4.54389ZM5.33348 2.24154V0.318359H8.80182V2.24153L11.4541 0.512714L13.6539 3.95331L10.8223 5.81132L13.6573 7.64536L11.4569 11.0869L8.80182 9.37598V16.6821H5.33348V9.37597L2.67843 11.0869L0.478027 7.64536L3.313 5.81132L0.481429 3.95331L2.6812 0.512714L5.33348 2.24154ZM6.3153 3.36165L7.06765 3.87702L7.82 3.36165V1.30018H6.3153V3.36165ZM6.3153 15.7003H7.82V8.33352L7.06765 7.81815L6.3153 8.33352V15.7003Z" fill="white"/>
</svg>
