<svg width="250" height="250" viewBox="0 0 250 250" fill="none" xmlns="http://www.w3.org/2000/svg">
<path d="M132 215L137 215L137 210L137 46.9537C137 40.1758 130.838 36 125 36C119.162 36 113 40.1758 113 46.9537L113 210L113 215L118 215L132 215Z" fill="#CD1719" stroke="white" stroke-width="10" stroke-linecap="round"/>
<path d="M85.9498 133.219L124.984 110.736L164.083 133.108C170.413 136.73 178.527 134.598 182.209 128.278C185.906 121.932 183.693 113.838 177.338 110.201L151.54 95.4402L177.219 80.6497C183.564 76.9949 185.753 68.8942 182.037 62.5586C178.337 56.2497 170.217 54.1412 163.898 57.781L124.94 80.2203L85.9168 57.8921C79.5872 54.2704 71.4731 56.4018 67.7915 62.7215C64.0943 69.0679 66.3068 77.1622 72.6623 80.7987L98.3839 95.5161L72.6293 110.35C66.284 114.005 64.0952 122.106 67.8107 128.441C71.5104 134.75 79.6305 136.859 85.9498 133.219Z" fill="#CD1719" stroke="white" stroke-width="10" stroke-linecap="round"/>
</svg>
