<svg width="250" height="250" viewBox="0 0 250 250" fill="none" xmlns="http://www.w3.org/2000/svg">
<g filter="url(#filter0_d_192_14162)">
<path d="M125 30L219 98.7539L183.095 210L66.9048 210L31 98.7539L125 30Z" fill="#4A90BF"/>
<path d="M36.8681 100.657L125 36.1947L213.132 100.657L179.455 205L70.545 205L36.8681 100.657Z" stroke="#FF9A24" stroke-width="10"/>
</g>
<path fill-rule="evenodd" clip-rule="evenodd" d="M169.868 191.222L197.637 105.691L125 52.8752L52.3628 105.691L80.1317 191.222L169.868 191.222ZM73.7032 200L176.297 200L208 102.351L125 42L42 102.351L73.7032 200Z" fill="white"/>
<path d="M128.78 95.3112C128.697 93.7344 128.53 91.9917 128.363 90H128.28L124.443 94.9793H123.276C116.103 94.9793 108.347 96.473 101.925 100.124L102.009 100.29C105.011 99.2116 108.264 98.6307 111.433 98.6307C114.602 98.6307 117.688 99.2116 120.44 100.29L118.605 102.697C116.187 101.701 113.268 101.12 110.349 101.12C106.346 101.12 102.426 102.199 99.6736 103.859L92.3344 93.9834H92.251C91.5004 102.697 91 112.407 91 117.386C91 128.672 93.6688 130.913 96.7546 133.485C99.1732 135.477 101.925 137.801 103.677 145.104C104.761 149.585 105.512 150.581 108.18 150.581C110.432 150.581 111.433 149.751 112.434 145.934C114.352 138.714 118.355 135.062 122.025 131.826C126.195 128.091 130.031 124.938 130.031 117.801C130.031 113.568 129.447 110 128.196 105.602C131.282 109.004 133.2 113.485 133.2 118.88C133.2 124.523 131.115 128.423 124.36 134.315C119.189 138.88 117.605 140.788 115.436 147.676C113.852 152.656 111.016 157.884 103.176 157.884C100.841 157.884 98.1724 157.469 95.8372 156.473L95.7538 156.639C102.676 165.104 113.518 170 125.194 170C146.711 170 162.724 153.568 162.724 132.324C162.724 112.905 149.213 97.6349 128.78 95.3112ZM104.928 128.672C102.759 128.091 100.674 127.842 98.2558 127.842L98.1724 127.759C98.4226 126.515 99.0064 125.436 99.6736 124.689C101.759 125.353 103.51 126.598 104.928 128.506V128.672Z" fill="#FF9A24"/>
<defs>
<filter id="filter0_d_192_14162" x="27" y="26" width="204" height="196" filterUnits="userSpaceOnUse" color-interpolation-filters="sRGB">
<feFlood flood-opacity="0" result="BackgroundImageFix"/>
<feColorMatrix in="SourceAlpha" type="matrix" values="0 0 0 0 0 0 0 0 0 0 0 0 0 0 0 0 0 0 127 0" result="hardAlpha"/>
<feOffset dx="4" dy="4"/>
<feGaussianBlur stdDeviation="4"/>
<feColorMatrix type="matrix" values="0 0 0 0 0 0 0 0 0 0 0 0 0 0 0 0 0 0 0.25 0"/>
<feBlend mode="normal" in2="BackgroundImageFix" result="effect1_dropShadow_192_14162"/>
<feBlend mode="normal" in="SourceGraphic" in2="effect1_dropShadow_192_14162" result="shape"/>
</filter>
</defs>
</svg>
