<svg width="55" height="62" viewBox="0 0 55 62" fill="none" xmlns="http://www.w3.org/2000/svg">
<path d="M10.6779 29.838C9.0689 29.3992 7.4599 29.253 5.55836 29.253C5.70463 28.2291 6.14345 27.4978 6.72854 26.9127C8.33754 27.3515 9.65399 28.3754 10.6779 29.838ZM29.1082 4.09541C28.962 2.9253 28.8157 1.46265 28.8157 0L25.8902 3.80288H24.8663C19.308 3.80288 13.3108 4.973 8.48381 7.75203V7.8983C10.8242 7.02071 13.3108 6.58192 15.7974 6.58192C18.2841 6.58192 20.6244 7.02071 22.6722 7.8983L21.2095 9.79974C19.308 9.06842 17.1139 8.62962 14.9198 8.62962C11.8481 8.62962 8.77635 9.36095 6.72854 10.6773L1.02391 3.07156C0.438818 9.79974 0 17.4055 0 21.2084C0 29.9843 2.04782 31.7395 4.38818 33.6409C6.28972 35.1035 8.33754 37.005 9.65399 42.5631C10.5316 46.0734 11.1167 46.8047 13.1645 46.8047C14.9198 46.8047 15.6512 46.2197 16.3825 43.1481C17.8453 37.59 20.917 34.6648 23.8424 32.1783C27.0604 29.253 29.9859 26.9127 29.9859 21.3547C29.9859 18.1368 29.5471 15.3578 28.5231 11.9937C30.8635 14.6265 32.3262 18.1368 32.3262 22.2322C32.3262 26.6202 30.7172 29.5455 25.4514 34.226C21.5021 37.7363 20.3319 39.199 18.5766 44.6108C17.4064 48.4136 15.2123 52.5091 9.0689 52.5091C7.31363 52.5091 5.26581 52.2165 3.36427 51.3389V51.4852C8.63008 58.0671 17.1139 61.87 26.0365 61.87C42.5653 61.87 54.9985 49.145 54.9985 32.7633C55.1447 17.698 44.7594 5.85059 29.1082 4.09541Z" fill="#B93228"/>
</svg>
