<svg width="112" height="41" viewBox="0 0 112 41" fill="none" xmlns="http://www.w3.org/2000/svg">
<path d="M60.4109 32.8114L61.7222 29.0963L63.0931 32.8114H60.4109ZM44.6748 26.9565H46.761C47.6849 26.9565 48.1916 27.5509 48.1916 28.2344C48.1916 28.918 47.6849 29.5124 46.761 29.5124H44.6748V26.9565ZM109.318 22.112C107.887 22.112 106.635 23.3008 106.635 24.7869V30.196L102.105 23.4792C101.599 22.7064 100.883 22.112 99.7807 22.112C98.2906 22.112 97.0985 23.3008 97.0985 24.7869V37.1803C97.0985 38.6663 98.2906 39.8552 99.7807 39.8552C101.271 39.8552 102.463 38.6663 102.463 37.1803V31.6226L106.993 38.488C107.5 39.2607 108.364 39.8552 109.377 39.8552C110.867 39.8552 112 38.6663 112 37.1803V24.7572C112 23.2711 110.808 22.112 109.318 22.112ZM93.9989 27.1645C95.3997 27.1645 96.5322 26.0351 96.5322 24.6383C96.5322 23.2414 95.3997 22.112 93.9989 22.112H86.727C85.2368 22.112 84.0447 23.3008 84.0447 24.7869V37.1803C84.0447 38.6663 85.2368 39.8552 86.727 39.8552H93.9989C95.3997 39.8552 96.5322 38.7258 96.5322 37.3289C96.5322 35.932 95.3997 34.8027 93.9989 34.8027H89.4689V33.1383H93.1645C94.3864 33.1383 95.3997 32.1278 95.3997 30.939C95.3997 29.7205 94.3864 28.71 93.1645 28.71H89.4689V27.2239H93.9989V27.1645ZM80.9154 22.112C79.6935 22.112 78.7398 22.7362 78.3821 23.8358L75.372 31.7415L72.3023 23.8358C71.9148 22.7362 70.991 22.112 69.769 22.112C67.802 22.112 66.6397 24.0736 67.3848 26.0054L72.1533 37.6558C72.6599 38.9338 73.6434 39.8552 75.372 39.8552C77.0708 39.8552 78.0543 38.9338 78.5609 37.6558L83.3294 26.0054C84.1043 24.0736 82.9122 22.112 80.9154 22.112ZM64.8813 24.2519C64.3151 22.9739 63.3614 22.0823 61.7818 22.0823C60.1724 22.0823 59.2485 22.9739 58.6823 24.2519L53.6158 35.9915C52.8409 37.7153 53.9138 39.8552 56.0894 39.8552C57.1921 39.8552 58.2054 39.1716 58.5631 38.1314L58.8909 37.1209H64.5833L64.9707 38.1908C65.2986 39.1121 66.2523 39.8849 67.4742 39.8849C69.5604 39.8849 70.6035 37.7747 69.8882 36.1104L64.8813 24.2519ZM50.4864 32.8114C52.3044 31.9198 53.5561 30.2852 53.5561 27.9967C53.5561 24.2816 50.4864 22.112 46.8803 22.112H41.9627C40.4726 22.112 39.2805 23.3008 39.2805 24.7869V37.1803C39.2805 38.6663 40.4726 39.8552 41.9627 39.8552C43.4827 39.8552 44.6748 38.6663 44.6748 37.1803V33.703L48.1022 38.6663C48.6684 39.4391 49.4731 39.8552 50.3374 39.8552C52.6621 39.8552 53.7648 37.3586 52.513 35.6348L50.4864 32.8114ZM64.7025 22.3498C64.7025 22.9442 65.2092 23.4495 65.8052 23.4495C66.4311 23.4495 66.9377 22.9442 66.9377 22.3498C66.9377 21.7554 66.4311 21.2501 65.8052 21.2501C65.2092 21.2501 64.7025 21.7554 64.7025 22.3498ZM57.6988 21.2501C57.0729 21.2501 56.5663 21.7554 56.5663 22.3498C56.5663 22.9442 57.0729 23.4495 57.6988 23.4495C58.2948 23.4495 58.8015 22.9442 58.8015 22.3498C58.8015 21.7554 58.2948 21.2501 57.6988 21.2501ZM7.09313 19.7344C5.99042 19.4372 4.91751 19.3183 3.69558 19.3183L3.66578 19.2886C3.78499 18.6645 4.08302 18.0998 4.44066 17.7134C5.51357 18.0403 6.40766 18.6942 7.12294 19.6749V19.7344H7.09313ZM65.8052 14.1469L67.1166 10.4319L68.4875 14.1469H65.8052ZM91.1974 21.161H98.0522C99.4529 21.161 100.585 20.0316 100.585 18.6347C100.585 17.2379 99.4529 16.1085 98.0522 16.1085H93.8797V6.0927C93.8797 4.60667 92.6876 3.41785 91.1676 3.41785C89.6775 3.41785 88.4854 4.60667 88.4854 6.0927V18.4861C88.5152 19.9722 89.7073 21.161 91.1974 21.161ZM78.6503 21.161H85.5349C86.9356 21.161 88.0681 20.0316 88.0681 18.6347C88.0681 17.2379 86.9356 16.1085 85.5349 16.1085H81.3624V6.0927C81.3624 4.60667 80.1703 3.41785 78.6503 3.41785C77.1602 3.41785 75.9681 4.60667 75.9681 6.0927V18.4861C75.9979 19.9722 77.19 21.161 78.6503 21.161ZM61.4838 21.161C62.5865 21.161 63.5998 20.4774 63.9574 19.4372L64.2853 18.4267H69.9777L70.3651 19.4966C70.6929 20.418 71.6466 21.1907 72.8686 21.1907C74.9548 21.1907 75.9979 19.0805 75.2826 17.4162L70.2757 5.61717C69.7094 4.33919 68.7557 3.44757 67.1762 3.44757C65.5668 3.44757 64.6429 4.33919 64.0766 5.61717L59.0101 17.3568C58.2352 19.0508 59.3081 21.161 61.4838 21.161ZM48.9367 15.3358C47.5359 15.3358 46.4332 16.5246 46.4332 17.862C46.4332 18.4861 46.6418 19.1697 47.2081 19.7344C48.1916 20.7152 49.8308 21.3987 52.3044 21.3987C56.4769 21.3987 58.7717 18.5159 58.7717 15.1872V6.0927C58.7717 4.60667 57.5796 3.41785 56.0894 3.41785C54.5993 3.41785 53.3773 4.60667 53.3773 6.0927V15.0683C53.3773 15.9005 52.8707 16.3463 52.1852 16.3463C51.4997 16.3463 51.1123 16.1382 50.397 15.7518C49.9202 15.4546 49.4433 15.3358 48.9367 15.3358ZM41.9329 21.161C43.4529 21.161 44.645 19.9722 44.645 18.4861V14.8305H48.5194C49.801 14.8305 50.8143 13.82 50.8143 12.5123C50.8143 11.2343 49.801 10.2238 48.5194 10.2238H44.645V8.52978H49.1751C50.5758 8.52978 51.7084 7.4004 51.7084 6.00354C51.7084 4.60667 50.5758 3.47729 49.1751 3.47729H41.9031C40.413 3.47729 39.2209 4.66611 39.2209 6.15214V18.5456C39.2805 19.9722 40.4428 21.161 41.9329 21.161ZM71.1996 4.785C71.8254 4.785 72.3321 4.27975 72.3321 3.68534C72.3321 3.09093 71.8254 2.58568 71.1996 2.58568C70.6035 2.58568 70.0969 3.09093 70.0969 3.68534C70.0969 4.27975 70.6035 4.785 71.1996 4.785ZM63.0931 4.785C63.6892 4.785 64.1959 4.27975 64.1959 3.68534C64.1959 3.09093 63.6892 2.58568 63.0931 2.58568C62.4673 2.58568 61.9606 3.09093 61.9606 3.68534C61.9308 4.27975 62.4375 4.785 63.0931 4.785ZM19.223 2.70456C19.1932 1.90211 19.1038 1.0105 19.0144 0H18.9846L17.0176 2.52624H16.4215C12.7855 2.52624 8.82171 3.29897 5.54337 5.14164L5.57318 5.2308C7.09314 4.66611 8.76211 4.39863 10.3715 4.39863C11.9808 4.39863 13.5604 4.69583 14.9612 5.2308L14.0373 6.44934C12.8153 5.97381 11.3252 5.67661 9.83502 5.67661C7.80841 5.67661 5.8116 6.2413 4.41086 7.07347L0.685471 2.02099H0.625865C0.268228 6.47906 0 11.4424 0 13.9686C0 19.7344 1.37094 20.8638 2.9207 22.1715C4.14263 23.182 5.54337 24.3708 6.43747 28.0858C7.00373 30.3743 7.36136 30.8796 8.7323 30.8796C9.86482 30.8796 10.4013 30.4635 10.9079 28.5019C11.8914 24.8463 13.918 22.9739 15.7956 21.3393C17.9117 19.4372 19.8787 17.8323 19.8787 14.1767C19.8787 12.0071 19.5806 10.1941 18.9548 7.96509C20.5343 9.68887 21.488 11.9773 21.488 14.7414C21.488 17.6242 20.4151 19.6155 16.9878 22.6173C14.3353 24.9355 13.5306 25.9163 12.4279 29.4233C11.6232 31.9495 10.1927 34.6243 6.19904 34.6243C5.00692 34.6243 3.66578 34.4163 2.47366 33.9111L2.44385 34.0002C5.96062 38.3097 11.4742 40.8062 17.4348 40.8062C28.4023 40.8062 36.5386 32.425 36.5386 21.5771C36.5088 11.6801 29.6243 3.89338 19.223 2.70456Z" fill="#B93228"/>
<path d="M60.4109 32.8114L61.7222 29.0963L63.0931 32.8114H60.4109ZM44.6748 26.9565H46.761C47.6849 26.9565 48.1916 27.5509 48.1916 28.2344C48.1916 28.918 47.6849 29.5124 46.761 29.5124H44.6748V26.9565ZM109.318 22.112C107.887 22.112 106.635 23.3008 106.635 24.7869V30.196L102.105 23.4792C101.599 22.7064 100.883 22.112 99.7807 22.112C98.2906 22.112 97.0985 23.3008 97.0985 24.7869V37.1803C97.0985 38.6663 98.2906 39.8552 99.7807 39.8552C101.271 39.8552 102.463 38.6663 102.463 37.1803V31.6226L106.993 38.488C107.5 39.2607 108.364 39.8552 109.377 39.8552C110.867 39.8552 112 38.6663 112 37.1803V24.7572C112 23.2711 110.808 22.112 109.318 22.112ZM93.9989 27.1645C95.3997 27.1645 96.5322 26.0351 96.5322 24.6383C96.5322 23.2414 95.3997 22.112 93.9989 22.112H86.727C85.2368 22.112 84.0447 23.3008 84.0447 24.7869V37.1803C84.0447 38.6663 85.2368 39.8552 86.727 39.8552H93.9989C95.3997 39.8552 96.5322 38.7258 96.5322 37.3289C96.5322 35.932 95.3997 34.8027 93.9989 34.8027H89.4689V33.1383H93.1645C94.3864 33.1383 95.3997 32.1278 95.3997 30.939C95.3997 29.7205 94.3864 28.71 93.1645 28.71H89.4689V27.2239H93.9989V27.1645ZM80.9154 22.112C79.6935 22.112 78.7398 22.7362 78.3821 23.8358L75.372 31.7415L72.3023 23.8358C71.9148 22.7362 70.991 22.112 69.769 22.112C67.802 22.112 66.6397 24.0736 67.3848 26.0054L72.1533 37.6558C72.6599 38.9338 73.6434 39.8552 75.372 39.8552C77.0708 39.8552 78.0543 38.9338 78.5609 37.6558L83.3294 26.0054C84.1043 24.0736 82.9122 22.112 80.9154 22.112ZM64.8813 24.2519C64.3151 22.9739 63.3614 22.0823 61.7818 22.0823C60.1724 22.0823 59.2485 22.9739 58.6823 24.2519L53.6158 35.9915C52.8409 37.7153 53.9138 39.8552 56.0894 39.8552C57.1921 39.8552 58.2054 39.1716 58.5631 38.1314L58.8909 37.1209H64.5833L64.9707 38.1908C65.2986 39.1121 66.2523 39.8849 67.4742 39.8849C69.5604 39.8849 70.6035 37.7747 69.8882 36.1104L64.8813 24.2519ZM50.4864 32.8114C52.3044 31.9198 53.5561 30.2852 53.5561 27.9967C53.5561 24.2816 50.4864 22.112 46.8803 22.112H41.9627C40.4726 22.112 39.2805 23.3008 39.2805 24.7869V37.1803C39.2805 38.6663 40.4726 39.8552 41.9627 39.8552C43.4827 39.8552 44.6748 38.6663 44.6748 37.1803V33.703L48.1022 38.6663C48.6684 39.4391 49.4731 39.8552 50.3374 39.8552C52.6621 39.8552 53.7648 37.3586 52.513 35.6348L50.4864 32.8114ZM64.7025 22.3498C64.7025 22.9442 65.2092 23.4495 65.8052 23.4495C66.4311 23.4495 66.9377 22.9442 66.9377 22.3498C66.9377 21.7554 66.4311 21.2501 65.8052 21.2501C65.2092 21.2501 64.7025 21.7554 64.7025 22.3498ZM57.6988 21.2501C57.0729 21.2501 56.5663 21.7554 56.5663 22.3498C56.5663 22.9442 57.0729 23.4495 57.6988 23.4495C58.2948 23.4495 58.8015 22.9442 58.8015 22.3498C58.8015 21.7554 58.2948 21.2501 57.6988 21.2501ZM7.09313 19.7344C5.99042 19.4372 4.91751 19.3183 3.69558 19.3183L3.66578 19.2886C3.78499 18.6645 4.08302 18.0998 4.44066 17.7134C5.51357 18.0403 6.40766 18.6942 7.12294 19.6749V19.7344H7.09313ZM65.8052 14.1469L67.1166 10.4319L68.4875 14.1469H65.8052ZM91.1974 21.161H98.0522C99.4529 21.161 100.585 20.0316 100.585 18.6347C100.585 17.2379 99.4529 16.1085 98.0522 16.1085H93.8797V6.0927C93.8797 4.60667 92.6876 3.41785 91.1676 3.41785C89.6775 3.41785 88.4854 4.60667 88.4854 6.0927V18.4861C88.5152 19.9722 89.7073 21.161 91.1974 21.161ZM78.6503 21.161H85.5349C86.9356 21.161 88.0681 20.0316 88.0681 18.6347C88.0681 17.2379 86.9356 16.1085 85.5349 16.1085H81.3624V6.0927C81.3624 4.60667 80.1703 3.41785 78.6503 3.41785C77.1602 3.41785 75.9681 4.60667 75.9681 6.0927V18.4861C75.9979 19.9722 77.19 21.161 78.6503 21.161ZM61.4838 21.161C62.5865 21.161 63.5998 20.4774 63.9574 19.4372L64.2853 18.4267H69.9777L70.3651 19.4966C70.6929 20.418 71.6466 21.1907 72.8686 21.1907C74.9548 21.1907 75.9979 19.0805 75.2826 17.4162L70.2757 5.61717C69.7094 4.33919 68.7557 3.44757 67.1762 3.44757C65.5668 3.44757 64.6429 4.33919 64.0766 5.61717L59.0101 17.3568C58.2352 19.0508 59.3081 21.161 61.4838 21.161ZM48.9367 15.3358C47.5359 15.3358 46.4332 16.5246 46.4332 17.862C46.4332 18.4861 46.6418 19.1697 47.2081 19.7344C48.1916 20.7152 49.8308 21.3987 52.3044 21.3987C56.4769 21.3987 58.7717 18.5159 58.7717 15.1872V6.0927C58.7717 4.60667 57.5796 3.41785 56.0894 3.41785C54.5993 3.41785 53.3773 4.60667 53.3773 6.0927V15.0683C53.3773 15.9005 52.8707 16.3463 52.1852 16.3463C51.4997 16.3463 51.1123 16.1382 50.397 15.7518C49.9202 15.4546 49.4433 15.3358 48.9367 15.3358ZM41.9329 21.161C43.4529 21.161 44.645 19.9722 44.645 18.4861V14.8305H48.5194C49.801 14.8305 50.8143 13.82 50.8143 12.5123C50.8143 11.2343 49.801 10.2238 48.5194 10.2238H44.645V8.52978H49.1751C50.5758 8.52978 51.7084 7.4004 51.7084 6.00354C51.7084 4.60667 50.5758 3.47729 49.1751 3.47729H41.9031C40.413 3.47729 39.2209 4.66611 39.2209 6.15214V18.5456C39.2805 19.9722 40.4428 21.161 41.9329 21.161ZM71.1996 4.785C71.8254 4.785 72.3321 4.27975 72.3321 3.68534C72.3321 3.09093 71.8254 2.58568 71.1996 2.58568C70.6035 2.58568 70.0969 3.09093 70.0969 3.68534C70.0969 4.27975 70.6035 4.785 71.1996 4.785ZM63.0931 4.785C63.6892 4.785 64.1959 4.27975 64.1959 3.68534C64.1959 3.09093 63.6892 2.58568 63.0931 2.58568C62.4673 2.58568 61.9606 3.09093 61.9606 3.68534C61.9308 4.27975 62.4375 4.785 63.0931 4.785ZM19.223 2.70456C19.1932 1.90211 19.1038 1.0105 19.0144 0H18.9846L17.0176 2.52624H16.4215C12.7855 2.52624 8.82171 3.29897 5.54337 5.14164L5.57318 5.2308C7.09314 4.66611 8.76211 4.39863 10.3715 4.39863C11.9808 4.39863 13.5604 4.69583 14.9612 5.2308L14.0373 6.44934C12.8153 5.97381 11.3252 5.67661 9.83502 5.67661C7.80841 5.67661 5.8116 6.2413 4.41086 7.07347L0.685471 2.02099H0.625865C0.268228 6.47906 0 11.4424 0 13.9686C0 19.7344 1.37094 20.8638 2.9207 22.1715C4.14263 23.182 5.54337 24.3708 6.43747 28.0858C7.00373 30.3743 7.36136 30.8796 8.7323 30.8796C9.86482 30.8796 10.4013 30.4635 10.9079 28.5019C11.8914 24.8463 13.918 22.9739 15.7956 21.3393C17.9117 19.4372 19.8787 17.8323 19.8787 14.1767C19.8787 12.0071 19.5806 10.1941 18.9548 7.96509C20.5343 9.68887 21.488 11.9773 21.488 14.7414C21.488 17.6242 20.4151 19.6155 16.9878 22.6173C14.3353 24.9355 13.5306 25.9163 12.4279 29.4233C11.6232 31.9495 10.1927 34.6243 6.19904 34.6243C5.00692 34.6243 3.66578 34.4163 2.47366 33.9111L2.44385 34.0002C5.96062 38.3097 11.4742 40.8062 17.4348 40.8062C28.4023 40.8062 36.5386 32.425 36.5386 21.5771C36.5088 11.6801 29.6243 3.89338 19.223 2.70456Z" fill="#B93228"/>
</svg>
