<svg width="24" height="24" viewBox="0 0 24 24" fill="none" xmlns="http://www.w3.org/2000/svg">
<path d="M7.93414 4C7.73691 4 7.577 4.15989 7.577 4.35714V6.32143C7.577 6.51866 7.73691 6.67857 7.93414 6.67857C8.13139 6.67857 8.29129 6.51866 8.29129 6.32143V4.35714C8.29129 4.15989 8.13139 4 7.93414 4ZM15.077 4C14.8798 4 14.7199 4.15989 14.7199 4.35714V6.32143C14.7199 6.51866 14.8798 6.67857 15.077 6.67857C15.2743 6.67857 15.4341 6.51866 15.4341 6.32143V4.35714C15.4341 4.15989 15.2743 4 15.077 4ZM5.43414 5.42857C4.6403 5.42857 4 6.06882 4 6.86271V10.0714H19V6.86271C19 6.06882 18.3597 5.42857 17.5659 5.42857H16.5H15.7913V6.6953C16.2173 6.94352 16.5056 7.40336 16.5056 7.92857C16.5056 8.71332 15.8618 9.35714 15.077 9.35714C14.2923 9.35714 13.6484 8.71332 13.6484 7.92857C13.6484 7.40336 13.9367 6.94352 14.3627 6.6953V5.42857H8.64286V6.68973C9.07252 6.93698 9.36271 7.40062 9.36271 7.92857C9.36271 8.71332 8.71896 9.35714 7.93414 9.35714C7.14945 9.35714 6.50557 8.71332 6.50557 7.92857C6.50557 7.40505 6.79054 6.94409 7.21429 6.6953V5.42857H5.43414ZM7.93414 7.21429C7.5355 7.21429 7.21986 7.52984 7.21986 7.92857C7.21986 8.32729 7.5355 8.64286 7.93414 8.64286C8.33286 8.64286 8.64843 8.32729 8.64843 7.92857C8.64843 7.52984 8.33286 7.21429 7.93414 7.21429ZM15.077 7.21429C14.6784 7.21429 14.3627 7.52984 14.3627 7.92857C14.3627 8.32729 14.6784 8.64286 15.077 8.64286C15.4757 8.64286 15.7913 8.32729 15.7913 7.92857C15.7913 7.52984 15.4757 7.21429 15.077 7.21429ZM4 10.7857V18.2801C4 19.074 4.64029 19.7143 5.43414 19.7143H17.5659C18.3597 19.7143 19 19.074 19 18.2801V10.7857H4Z" fill="#6D6D6D"/>
</svg>
