<svg width="250" height="250" viewBox="0 0 250 250" fill="none" xmlns="http://www.w3.org/2000/svg">
<g filter="url(#filter0_d)">
<path d="M190 120.59C190 171.392 125 218 125 218C125 218 60 171.858 60 120.59C60 87.1271 89.1015 60 125 60C160.899 60 190 87.1271 190 120.59Z" fill="#CD1719"/>
<path d="M185 120.59C185 144.034 169.869 167.181 153.788 184.996C145.851 193.789 137.898 201.047 131.924 206.109C129.083 208.517 126.698 210.42 124.986 211.747C123.277 210.432 120.897 208.548 118.063 206.163C112.091 201.139 104.141 193.926 96.2061 185.164C80.1374 167.421 65 144.271 65 120.59C65 90.2135 91.5262 65 125 65C158.474 65 185 90.2135 185 120.59Z" stroke="white" stroke-width="10"/>
</g>
<path d="M129.058 95.6473C128.985 94.2676 128.839 92.7427 128.693 91H128.62L125.263 95.3568H124.241C117.966 95.3568 111.179 96.6639 105.56 99.8589L105.633 100.004C108.26 99.0602 111.106 98.5519 113.879 98.5519C116.652 98.5519 119.352 99.0602 121.76 100.004L120.155 102.11C118.038 101.239 115.484 100.73 112.93 100.73C109.427 100.73 105.998 101.674 103.589 103.127L97.1676 94.4855H97.0946C96.4379 102.11 96 110.606 96 114.963C96 124.838 98.3352 126.799 101.035 129.05C103.152 130.793 105.56 132.826 107.092 139.216C108.041 143.137 108.698 144.008 111.033 144.008C113.003 144.008 113.879 143.282 114.755 139.942C116.433 133.624 119.936 130.429 123.147 127.598C126.796 124.33 130.152 121.571 130.152 115.326C130.152 111.622 129.642 108.5 128.547 104.651C131.247 107.629 132.925 111.55 132.925 116.27C132.925 121.207 131.101 124.62 125.19 129.776C120.666 133.77 119.279 135.44 117.382 141.467C115.995 145.824 113.514 150.398 106.654 150.398C104.611 150.398 102.276 150.035 100.233 149.164L100.16 149.309C106.217 156.716 115.703 161 125.92 161C144.747 161 158.759 146.622 158.759 128.033C158.759 111.041 146.937 97.6805 129.058 95.6473ZM108.187 124.838C106.289 124.33 104.465 124.112 102.349 124.112L102.276 124.039C102.495 122.95 103.006 122.006 103.589 121.353C105.414 121.934 106.946 123.023 108.187 124.693V124.838Z" fill="white"/>
<defs>
<filter id="filter0_d" x="56" y="56" width="146" height="174" filterUnits="userSpaceOnUse" color-interpolation-filters="sRGB">
<feFlood flood-opacity="0" result="BackgroundImageFix"/>
<feColorMatrix in="SourceAlpha" type="matrix" values="0 0 0 0 0 0 0 0 0 0 0 0 0 0 0 0 0 0 127 0" result="hardAlpha"/>
<feOffset dx="4" dy="4"/>
<feGaussianBlur stdDeviation="4"/>
<feColorMatrix type="matrix" values="0 0 0 0 0 0 0 0 0 0 0 0 0 0 0 0 0 0 0.25 0"/>
<feBlend mode="normal" in2="BackgroundImageFix" result="effect1_dropShadow"/>
<feBlend mode="normal" in="SourceGraphic" in2="effect1_dropShadow" result="shape"/>
</filter>
</defs>
</svg>
