<svg width="8" height="8" viewBox="0 0 8 8" fill="none" xmlns="http://www.w3.org/2000/svg">
<path fill-rule="evenodd" clip-rule="evenodd" d="M1.24793 1.24793C1.41834 1.07751 1.69463 1.07751 1.86504 1.24793L4.00012 3.38301L6.1352 1.24793C6.30561 1.07751 6.5819 1.07751 6.75231 1.24793C6.92272 1.41834 6.92272 1.69463 6.75231 1.86504L4.61723 4.00012L6.75231 6.1352C6.92272 6.30561 6.92272 6.5819 6.75231 6.75231C6.5819 6.92272 6.30561 6.92272 6.1352 6.75231L4.00012 4.61723L1.86504 6.75231C1.69463 6.92272 1.41834 6.92272 1.24793 6.75231C1.07751 6.5819 1.07751 6.30561 1.24793 6.1352L3.38301 4.00012L1.24793 1.86504C1.07751 1.69463 1.07751 1.41834 1.24793 1.24793Z" fill="#303030" stroke="#303030" stroke-width="0.48"/>
</svg>
