<svg width="18" height="18" viewBox="0 0 18 18" fill="none" xmlns="http://www.w3.org/2000/svg">
<path d="M3.94095 15C3.69924 15 3.45752 14.9062 3.27546 14.7153C2.90818 14.3367 2.90818 13.722 3.27546 13.3434L7.00471 9.49959L3.27546 5.65578C2.90818 5.27723 2.90818 4.66248 3.27546 4.28392C3.64273 3.90536 4.23916 3.90536 4.60644 4.28392L9.66667 9.49959L4.60644 14.7153C4.42437 14.9062 4.18266 15 3.94095 15Z" fill="#303030"/>
<path d="M13.3923 4C13.634 4 13.8757 4.09383 14.0578 4.28473C14.4251 4.66329 14.4251 5.27804 14.0578 5.65659L10.3285 9.5004L14.0578 13.3442C14.4251 13.7228 14.4251 14.3375 14.0578 14.7161C13.6905 15.0946 13.0941 15.0946 12.7268 14.7161L7.66659 9.5004L12.7268 4.28473C12.9089 4.09383 13.1506 4 13.3923 4Z" fill="#303030"/>
</svg>
