<svg width="20" height="20" viewBox="0 0 20 20" fill="none" xmlns="http://www.w3.org/2000/svg">
<path d="M10 3C6.14176 3 3 6.14176 3 10C3 13.8582 6.14176 17 10 17C13.8582 17 17 13.8582 17 10C17 6.14176 13.8582 3 10 3ZM10.4118 16.1559V14.9412C10.4118 14.7147 10.2265 14.5294 10 14.5294C9.77353 14.5294 9.58824 14.7147 9.58824 14.9412V16.1559C6.51235 15.95 4.05 13.4876 3.84412 10.4118H5.05882C5.28529 10.4118 5.47059 10.2265 5.47059 10C5.47059 9.77353 5.28529 9.58824 5.05882 9.58824H3.84412C4.05 6.51235 6.51235 4.05 9.58824 3.84412V5.05882C9.58824 5.28529 9.77353 5.47059 10 5.47059C10.2265 5.47059 10.4118 5.28529 10.4118 5.05882V3.84412C13.4876 4.05 15.95 6.51235 16.1559 9.58824H14.9412C14.7147 9.58824 14.5294 9.77353 14.5294 10C14.5294 10.2265 14.7147 10.4118 14.9412 10.4118H16.1559C15.95 13.4876 13.4876 15.95 10.4118 16.1559ZM8.76471 8.76471L6.16647 13.8294L11.2353 11.2353V11.2312V11.2353L13.7059 6.29412L8.76471 8.76471ZM8.06882 11.9312L9.37824 9.37412L10.6218 10.6176L8.06882 11.9312Z" fill="#303030"/>
</svg>
