<?xml version="1.0" standalone="no"?>
<!DOCTYPE svg PUBLIC "-//W3C//DTD SVG 20010904//EN"
 "http://www.w3.org/TR/2001/REC-SVG-20010904/DTD/svg10.dtd">
<svg version="1.0" xmlns="http://www.w3.org/2000/svg"
 width="310.000000pt" height="310.000000pt" viewBox="0 0 310.000000 310.000000"
 preserveAspectRatio="xMidYMid meet">
<metadata>
Created by potrace 1.11, written by Peter Selinger 2001-2013
</metadata>
<g transform="translate(0.000000,310.000000) scale(0.100000,-0.100000)"
fill="#000000" stroke="none">
<path d="M1574 3088 c-5 -7 -2 -9 7 -4 8 4 2 -2 -14 -14 -15 -12 -25 -26 -21
-31 3 -5 0 -9 -5 -9 -6 0 -11 -5 -11 -11 0 -5 6 -7 13 -3 7 4 9 3 4 -2 -5 -5
-14 -9 -20 -9 -7 -1 -11 -7 -9 -14 2 -8 -3 -11 -13 -8 -8 4 -15 2 -15 -4 0
-13 -26 -39 -39 -39 -6 0 -8 -6 -5 -13 3 -10 -10 -13 -51 -14 -30 0 -55 4 -55
9 0 5 -7 2 -16 -6 -8 -9 -20 -13 -26 -10 -19 12 -88 12 -88 1 0 -6 -6 -3 -13
8 -11 14 -16 15 -22 5 -6 -9 -4 -11 5 -5 8 5 11 4 7 -3 -4 -5 -16 -8 -27 -5
-12 3 -20 0 -20 -7 0 -8 -14 -11 -45 -8 -25 2 -45 -1 -45 -5 0 -5 -5 -5 -10
-2 -6 3 -13 0 -15 -8 -6 -15 -32 -16 -54 -2 -10 6 -12 4 -6 -5 6 -10 4 -12 -8
-7 -10 4 -20 0 -26 -11 -6 -9 -11 -13 -11 -9 0 4 -10 3 -21 -4 -13 -7 -19 -7
-15 -1 4 6 -2 10 -14 9 -11 -1 -20 -5 -20 -9 0 -4 -7 -8 -15 -8 -8 0 -15 -4
-15 -9 0 -5 -9 -7 -20 -4 -11 3 -20 0 -20 -6 0 -5 -6 -8 -14 -5 -8 3 -17 0
-21 -5 -3 -6 -12 -8 -18 -5 -7 4 -9 4 -5 -1 4 -4 3 -14 -3 -22 -9 -10 -15 -10
-25 -2 -11 9 -14 7 -14 -7 0 -16 -2 -17 -10 -4 -8 13 -10 12 -10 -4 0 -15 -3
-16 -15 -6 -11 9 -15 9 -15 1 0 -7 -5 -9 -10 -6 -6 3 -13 -1 -16 -9 -3 -9 -10
-14 -14 -11 -4 3 -7 -9 -6 -25 1 -27 2 -29 13 -13 7 9 13 13 13 7 0 -5 5 -2
10 6 8 12 11 13 19 1 6 -9 11 -10 15 -2 4 6 12 9 17 6 5 -3 6 1 3 9 -5 12 6
14 59 13 36 -1 65 0 65 3 -2 24 4 27 37 20 19 -4 35 -5 35 -1 0 11 54 7 62 -4
5 -6 8 -4 8 5 0 13 1 13 10 0 7 -11 10 -11 10 -2 0 10 5 10 20 2 11 -6 20 -7
20 -2 0 9 53 8 69 -3 6 -3 11 -2 11 4 0 7 8 7 25 -1 14 -6 25 -14 25 -18 0 -3
18 -5 39 -3 27 2 41 -2 45 -12 3 -8 12 -12 21 -9 8 3 15 1 15 -5 0 -6 5 -11
11 -11 5 0 7 6 3 13 -5 9 -4 9 6 0 10 -9 7 -18 -16 -43 -31 -33 -65 -37 -96
-11 -21 18 -46 22 -53 11 -8 -14 -35 0 -35 17 0 11 -3 13 -13 5 -7 -6 -18 -7
-27 -2 -7 4 -23 4 -36 0 -15 -6 -25 -5 -28 3 -5 9 -7 9 -12 0 -3 -7 -15 -9
-32 -5 -34 9 -54 9 -69 -1 -8 -5 -13 -3 -13 3 0 7 -6 8 -17 1 -10 -5 -26 -5
-40 0 -21 8 -27 5 -25 -12 1 -3 -4 -6 -11 -6 -7 0 -21 -4 -31 -9 -15 -6 -17
-4 -11 7 8 12 6 12 -8 1 -9 -8 -21 -11 -27 -7 -5 3 -13 -1 -16 -10 -5 -13 -9
-13 -22 -3 -13 11 -14 11 -8 0 6 -10 3 -13 -10 -10 -11 2 -26 -3 -34 -12 -8
-8 -22 -15 -30 -15 -8 0 -14 -5 -13 -11 1 -7 -8 -9 -22 -6 -14 2 -25 11 -25
18 0 8 -16 30 -35 50 -19 19 -35 41 -35 48 0 8 -10 21 -23 30 -12 9 -15 14 -7
11 8 -3 7 0 -3 7 -42 30 -58 47 -60 67 -1 12 -9 24 -19 27 -10 3 -18 12 -18
21 0 8 -9 17 -19 20 -13 3 -18 12 -16 24 2 12 -2 19 -11 19 -8 0 -12 5 -9 10
3 6 -1 10 -9 10 -9 0 -16 5 -16 11 0 6 -6 4 -14 -4 -15 -15 -16 -33 -3 -54 5
-7 4 -13 -2 -13 -6 0 -8 -18 -4 -46 4 -38 3 -45 -8 -39 -8 5 -5 -1 5 -13 11
-12 14 -22 8 -22 -7 0 -9 -16 -5 -46 4 -38 3 -45 -8 -39 -8 5 -7 1 2 -10 16
-16 16 -18 -2 -36 -11 -11 -16 -27 -13 -43 3 -17 0 -26 -8 -26 -8 0 -9 -3 -3
-8 15 -10 16 -72 2 -72 -8 0 -8 -3 -2 -8 13 -9 14 -65 0 -74 -6 -5 -6 -8 2 -8
11 0 10 -36 -2 -48 -2 -3 0 -11 6 -18 7 -9 7 -19 -1 -35 -7 -12 -8 -19 -2 -15
6 3 9 -7 8 -24 0 -17 -5 -30 -11 -30 -7 0 -7 -3 0 -8 14 -10 14 -125 1 -134
-7 -5 -7 -8 -1 -8 14 0 15 -70 1 -70 -7 0 -7 -3 -1 -8 13 -9 15 -72 3 -72 -5
0 -6 -6 -1 -12 13 -21 13 -42 0 -50 -8 -5 -9 -8 -1 -8 12 0 12 -56 0 -67 -3
-3 -1 -12 6 -20 6 -7 8 -16 5 -20 -4 -3 3 -22 15 -41 12 -20 16 -32 10 -28 -9
6 -11 0 -8 -21 3 -15 10 -29 16 -31 5 -2 10 -12 10 -22 0 -10 5 -20 10 -22 6
-2 12 -13 13 -25 0 -12 5 -19 9 -17 4 3 8 -2 8 -11 0 -9 5 -13 10 -10 6 3 10
-1 10 -10 0 -9 7 -23 15 -32 8 -8 13 -18 11 -21 -2 -4 7 -12 20 -19 13 -6 22
-7 18 -2 -3 5 -1 9 4 9 6 0 13 -7 16 -16 3 -8 11 -12 17 -8 8 4 9 3 5 -5 -8
-12 1 -23 48 -59 16 -12 26 -22 22 -22 -4 0 -1 -7 8 -15 8 -8 20 -15 26 -15 6
0 8 -4 5 -10 -3 -5 1 -10 10 -10 9 0 14 -4 11 -8 -3 -5 4 -14 14 -22 10 -8 17
-17 14 -22 -3 -4 0 -8 6 -8 6 0 8 -4 5 -10 -3 -5 2 -10 12 -11 10 0 13 -3 6
-5 -16 -7 27 -93 47 -94 12 0 11 -4 -4 -15 -11 -8 -14 -15 -8 -15 7 0 12 -9
12 -21 0 -14 5 -19 13 -16 11 4 12 -3 7 -34 -4 -22 -3 -39 2 -39 15 0 27 -44
14 -52 -7 -5 -6 -8 3 -8 8 0 12 -3 8 -6 -3 -4 1 -13 9 -21 8 -9 13 -22 9 -31
-7 -18 14 -44 29 -35 6 4 5 0 -2 -9 -9 -11 -10 -18 -2 -23 6 -3 8 -11 5 -16
-3 -5 2 -6 11 -2 10 3 22 0 28 -8 8 -10 34 -14 88 -14 42 0 75 2 72 4 -2 2 5
11 16 18 11 8 18 19 14 24 -3 5 -2 9 3 8 19 -3 34 2 29 10 -3 5 1 14 10 21 12
11 12 15 2 22 -10 7 -10 11 3 21 9 6 14 18 11 26 -3 8 0 11 6 7 7 -4 9 1 7 15
-3 13 3 28 13 36 10 9 11 11 2 7 -13 -7 -13 -5 -2 9 8 9 11 25 7 37 -4 14 -2
20 6 18 7 -2 15 6 17 17 2 11 11 26 20 33 12 9 13 12 2 12 -10 0 -9 4 4 13 9
7 18 22 19 35 0 12 5 22 9 22 4 0 8 7 8 16 0 8 4 12 10 9 5 -3 7 0 4 8 -3 8 2
17 11 21 9 3 14 10 10 15 -3 5 4 12 15 16 18 6 22 12 19 32 0 3 7 11 16 16 13
7 14 11 5 17 -8 5 -3 10 14 14 14 3 26 13 26 22 0 8 4 13 9 10 4 -3 16 3 26
14 10 11 14 20 9 20 -5 1 2 7 16 15 14 7 25 19 25 27 1 7 6 12 12 11 7 -2 15
7 18 19 6 16 9 18 16 7 6 -10 9 -10 9 -2 0 7 7 10 18 6 9 -3 14 -3 10 2 -10
11 11 37 23 29 5 -3 9 -2 8 3 -3 17 1 33 9 31 4 -1 20 10 36 25 16 15 25 27
20 27 -5 1 4 8 19 16 15 8 25 19 23 23 -3 4 6 13 20 20 23 10 24 14 13 29 -7
9 -9 14 -5 10 11 -9 48 31 40 44 -3 4 0 7 7 6 7 -2 13 6 14 17 0 11 5 19 11
18 6 -1 10 13 9 32 -1 20 2 33 9 32 6 -1 10 4 8 12 -1 7 3 19 9 27 7 9 8 14 1
14 -11 0 -11 18 1 38 5 6 4 12 0 12 -12 0 -10 73 2 82 6 5 6 8 -1 8 -6 0 -11
7 -11 15 0 8 5 15 10 15 5 0 5 6 -2 13 -8 10 -7 17 1 25 8 8 9 12 1 12 -12 0
-12 18 0 38 5 6 4 12 0 12 -5 0 -9 11 -9 25 0 14 4 25 9 25 5 0 5 6 -2 13 -7
9 -7 17 -1 23 7 7 4 17 -7 30 -17 18 -28 99 -13 89 5 -3 11 1 13 7 3 8 6 6 6
-4 1 -12 6 -15 17 -11 14 5 15 3 5 -15 -7 -14 -8 -22 -2 -22 6 0 15 -10 22
-21 9 -17 8 -23 -2 -30 -10 -6 -10 -9 -2 -9 7 0 18 -19 25 -42 6 -24 15 -45
19 -48 8 -7 18 -101 10 -96 -4 3 -7 -4 -7 -14 0 -10 3 -17 7 -14 4 2 11 -6 15
-18 4 -13 12 -26 18 -30 7 -5 4 -8 -7 -8 -12 0 -16 -4 -10 -12 12 -21 12 -36
-2 -42 -8 -3 -13 -23 -12 -57 0 -33 -5 -56 -14 -63 -8 -6 -13 -20 -11 -31 1
-11 -4 -29 -13 -40 -9 -11 -13 -14 -9 -6 5 10 3 12 -5 7 -9 -6 -9 -11 0 -22 9
-11 8 -15 -4 -20 -9 -3 -14 -14 -12 -25 2 -10 -1 -22 -7 -25 -7 -5 -8 -2 -3 6
5 9 4 11 -3 6 -7 -4 -12 -14 -12 -22 0 -8 -4 -12 -10 -9 -5 3 -10 -1 -10 -9 0
-9 -6 -16 -14 -16 -9 0 -13 -7 -11 -19 2 -11 -3 -22 -11 -25 -9 -3 -12 -11 -9
-16 4 -6 3 -10 -2 -9 -17 3 -33 -1 -30 -9 1 -4 -27 -36 -63 -72 -36 -36 -64
-68 -62 -73 1 -5 -2 -6 -8 -2 -5 3 -10 2 -10 -4 0 -5 -9 -8 -20 -6 -13 2 -20
-2 -20 -11 0 -8 -14 -23 -31 -33 -17 -10 -31 -23 -32 -27 -1 -5 -5 -8 -9 -7
-3 1 -12 -5 -20 -14 -11 -14 -11 -16 2 -8 13 8 13 6 1 -8 -7 -9 -17 -14 -22
-11 -5 3 -9 -2 -9 -11 0 -10 -5 -13 -11 -9 -8 5 -10 -1 -7 -19 3 -15 1 -24 -4
-21 -4 3 -11 -2 -14 -10 -3 -9 -10 -13 -15 -10 -5 3 -9 2 -10 -3 -3 -29 -9
-47 -20 -53 -6 -5 -9 -17 -6 -29 3 -11 2 -20 -2 -19 -20 2 -28 -5 -27 -24 1
-14 -4 -22 -12 -20 -8 1 -12 -3 -9 -10 2 -7 -4 -24 -14 -37 -13 -16 -16 -28
-9 -40 6 -13 4 -22 -10 -34 -13 -10 -17 -24 -14 -41 3 -18 0 -25 -8 -24 -9 2
-13 -9 -12 -34 1 -22 -4 -36 -10 -35 -6 1 -10 -6 -10 -15 1 -10 -2 -18 -8 -18
-5 0 -6 -4 -3 -10 3 -5 -1 -10 -10 -10 -10 0 -13 -5 -9 -12 5 -7 2 -9 -8 -6
-11 5 -14 0 -12 -18 1 -15 -2 -22 -9 -17 -6 4 -8 0 -4 -10 3 -9 3 -16 -1 -16
-18 3 -35 -2 -29 -7 4 -4 -17 -29 -45 -56 -43 -41 -53 -46 -66 -36 -13 11 -15
10 -10 -3 4 -11 -2 -20 -18 -28 -15 -7 -23 -7 -19 -1 13 21 -24 9 -39 -12 -11
-15 -16 -18 -16 -8 0 9 -3 11 -8 5 -8 -12 -43 -12 -61 -1 -6 4 -11 2 -11 -5 0
-10 -3 -10 -11 -2 -7 7 -21 8 -40 3 -20 -6 -29 -5 -29 3 0 8 -3 8 -8 2 -11
-15 -112 -13 -112 3 0 11 -16 15 -62 15 -10 0 -15 4 -12 8 5 8 -3 11 -22 8 -4
0 -11 5 -15 13 -7 10 -9 10 -9 0 0 -7 -4 -11 -9 -8 -5 3 -11 -5 -13 -19 -3
-14 -1 -25 4 -25 11 0 62 -50 51 -51 -4 0 2 -4 15 -10 13 -5 21 -13 18 -18 -3
-5 4 -11 15 -14 12 -3 18 -10 14 -16 -3 -6 0 -11 7 -11 7 0 19 -9 26 -20 7
-11 19 -20 28 -20 9 0 32 -17 52 -38 21 -22 45 -38 55 -36 9 1 17 -3 17 -9 0
-16 38 -39 50 -32 6 4 10 1 10 -5 0 -15 26 -41 34 -33 3 4 6 1 6 -6 0 -8 7
-11 15 -7 9 3 18 -1 21 -9 4 -8 10 -12 15 -9 5 3 9 0 9 -6 0 -6 5 -8 10 -5 6
3 13 0 15 -8 6 -15 32 -16 55 -2 8 4 12 5 8 0 -11 -11 20 -38 37 -31 9 3 15 0
15 -9 0 -10 11 -15 35 -15 19 0 35 -4 35 -9 0 -13 35 -20 53 -9 13 7 15 5 11
-7 -6 -15 0 -17 66 -19 14 -1 31 -5 39 -10 10 -7 12 -5 7 5 -4 8 -1 6 7 -3 13
-16 40 -18 306 -18 222 0 290 3 289 12 -2 8 11 12 37 12 22 0 44 6 48 13 5 8
13 10 19 7 6 -4 14 0 19 7 6 10 9 11 9 2 0 -7 5 -13 11 -13 5 0 7 6 3 13 -5 8
-2 8 9 -2 9 -7 17 -9 17 -3 0 12 56 33 65 24 4 -4 11 1 16 11 6 9 15 14 21 11
6 -4 13 -1 17 5 4 6 17 13 29 16 11 2 30 9 41 15 12 6 21 7 21 3 0 -4 4 -3 8
2 12 17 52 36 62 30 6 -4 10 1 10 9 0 9 5 16 11 16 5 0 8 4 4 9 -3 6 4 8 15 6
11 -2 20 1 20 7 0 6 3 9 6 5 9 -9 36 21 30 32 -3 5 8 7 24 6 16 -1 28 0 26 4
-5 9 81 91 88 84 3 -4 6 -1 6 5 0 7 6 12 14 12 7 0 21 11 32 24 10 14 22 22
28 19 5 -4 7 1 3 10 -3 9 -3 16 1 15 4 -2 17 6 29 17 18 15 20 22 10 34 -8 10
-8 13 -1 8 7 -4 15 0 18 9 3 8 11 12 17 8 7 -4 9 -3 6 3 -6 10 27 44 37 37 3
-2 4 -1 1 3 -3 3 2 15 12 25 12 13 13 18 3 18 -16 0 -3 15 13 15 7 1 11 7 9
14 -1 7 2 10 7 7 5 -4 13 -1 17 5 3 6 0 15 -7 20 -11 7 -11 9 -1 9 7 0 10 5 7
10 -4 6 -3 10 2 9 22 -4 32 2 27 16 -4 9 4 25 20 40 15 14 24 25 21 25 -3 0 2
11 11 25 9 14 13 25 9 25 -4 0 -2 6 4 14 9 11 9 15 0 18 -7 2 -5 9 7 18 14 12
16 12 9 1 -5 -10 -4 -12 4 -7 6 4 9 12 5 17 -3 5 1 21 10 34 9 13 16 33 16 44
0 10 7 31 14 47 10 17 12 33 6 43 -5 10 -3 19 8 27 10 8 16 27 17 55 0 31 4
43 13 41 9 -2 12 6 9 27 -3 16 -8 34 -12 40 -4 7 0 8 11 4 13 -5 15 -2 7 13
-5 10 -8 60 -7 109 0 50 -3 98 -8 107 -7 14 -5 16 8 11 13 -5 15 -3 9 7 -11
17 -13 223 -3 231 5 3 0 14 -10 25 -10 11 -16 26 -14 33 3 10 0 11 -9 5 -9 -5
-7 2 5 20 10 16 12 25 5 21 -9 -6 -11 -2 -7 13 4 12 2 22 -4 22 -5 0 -6 5 -3
10 3 6 1 10 -4 10 -6 0 -11 12 -11 26 0 14 -7 32 -15 40 -18 19 -20 38 -2 28
6 -4 3 3 -8 16 -11 13 -14 20 -7 16 6 -4 12 -2 12 3 0 6 -7 11 -16 11 -10 0
-14 5 -10 15 3 9 -1 18 -9 21 -8 4 -12 10 -9 15 3 5 0 9 -6 9 -7 0 -8 6 -1 19
12 21 5 32 -15 24 -10 -4 -12 0 -8 10 6 17 -24 77 -39 77 -5 0 -6 7 -3 16 4
10 2 13 -6 8 -8 -5 -9 -2 -5 9 4 10 2 16 -6 14 -7 -1 -11 6 -9 16 2 12 -4 21
-17 24 -12 3 -18 9 -15 14 3 5 1 9 -4 9 -6 0 -13 7 -16 16 -3 8 -2 12 4 9 6
-3 7 1 4 10 -4 9 -8 14 -11 11 -6 -5 -83 73 -83 85 0 5 -3 8 -7 7 -10 -3 -113
100 -113 113 0 5 -5 9 -11 9 -6 0 -18 9 -27 20 -10 12 -27 22 -39 23 -13 1
-23 7 -23 15 0 7 -4 10 -10 7 -6 -3 -10 4 -10 16 0 12 -3 20 -6 16 -4 -3 -13
1 -22 9 -10 10 -17 12 -21 5 -4 -7 -12 -3 -21 9 -8 11 -22 20 -32 20 -10 0
-18 5 -18 11 0 6 -5 9 -12 7 -6 -2 -20 4 -31 15 -16 16 -21 17 -28 6 -7 -11
-9 -10 -9 4 0 10 -8 17 -20 17 -11 0 -20 5 -20 11 0 5 -4 7 -10 4 -5 -3 -10
-1 -10 5 0 7 -7 10 -15 6 -9 -3 -19 3 -26 15 -8 16 -13 18 -25 8 -11 -9 -14
-8 -14 2 0 11 -2 11 -10 -1 -8 -13 -10 -12 -10 4 0 12 -5 16 -15 12 -8 -3 -15
-2 -15 3 0 5 -11 7 -25 6 -15 -2 -25 2 -25 10 0 7 -12 12 -27 13 -61 0 -74 2
-69 11 3 5 -10 11 -29 13 -19 2 -35 1 -35 -3 0 -10 -74 8 -78 20 -2 5 -9 8
-16 5 -17 -7 -41 22 -26 31 8 5 8 11 -1 21 -9 11 -9 14 1 14 10 0 10 3 0 15
-7 9 -8 15 -2 15 11 0 11 18 -1 38 -5 7 -3 12 4 12 9 0 9 3 0 14 -9 11 -9 15
1 19 7 3 -1 6 -19 6 -17 1 -35 -4 -39 -11z m76 -678 c0 -11 -4 -20 -9 -20 -7
0 -8 17 -2 38 4 10 11 -2 11 -18z m-1099 -692 c12 -13 19 -16 15 -8 -7 13 -6
13 6 0 7 -8 20 -16 27 -18 8 -2 19 -9 25 -16 6 -8 18 -16 26 -19 11 -4 9 -6
-5 -6 -17 -1 -17 -3 -5 -11 10 -6 -3 -9 -43 -9 -40 1 -60 5 -64 15 -3 8 -9 11
-14 8 -6 -3 -17 0 -26 8 -12 9 -15 9 -9 1 4 -7 3 -13 -2 -13 -14 0 -25 34 -13
38 6 2 11 10 11 18 0 8 3 13 8 13 22 -4 42 2 37 11 -11 18 4 11 26 -12z m719
-338 c0 -5 -5 -10 -11 -10 -5 0 -7 5 -4 10 3 6 8 10 11 10 2 0 4 -4 4 -10z"/>
</g>
</svg>
