<svg width="80" height="80" viewBox="0 0 80 80" fill="none" xmlns="http://www.w3.org/2000/svg">
<path d="M66.6665 30.0002C64.1279 30.0122 61.6203 29.4417 59.3367 28.3328C57.0531 27.2238 55.0542 25.6059 53.4939 23.6034C51.9335 21.6009 50.8532 19.2672 50.3361 16.7818C49.819 14.2964 49.8788 11.7255 50.5109 9.26683C47.3103 7.72129 44.2014 5.99249 41.1998 4.08905L39.9998 3.3335L38.7998 4.11127C34.4846 6.83013 29.9677 9.21486 25.2887 11.2446C20.5249 13.37 15.5979 15.109 10.5553 16.4446L8.88867 16.8668V35.4002C8.88867 65.1557 38.9553 76.289 39.2442 76.4002L39.9998 76.6668L40.7553 76.4002C41.0665 76.4002 71.1109 65.1779 71.1109 35.4002V29.3779C69.6643 29.785 68.1692 29.9943 66.6665 30.0002Z" fill="#B93228"/>
<path d="M66.6663 24.4444C72.8028 24.4444 77.7774 19.4698 77.7774 13.3333C77.7774 7.19678 72.8028 2.22217 66.6663 2.22217C60.5298 2.22217 55.5552 7.19678 55.5552 13.3333C55.5552 19.4698 60.5298 24.4444 66.6663 24.4444Z" fill="#B93228"/>
</svg>
