<svg width="44" height="44" viewBox="0 0 44 44" fill="none" xmlns="http://www.w3.org/2000/svg">
<rect width="44" height="44" rx="22" fill="white"/>
<path d="M30.3806 30.3806C29.5547 31.2065 28.21 31.2065 27.3841 30.3806L23.7894 26.7859C25.0388 26.0765 26.0765 25.0388 26.7859 23.7894L30.3806 27.3841C31.2065 28.21 31.2065 29.5547 30.3806 30.3806ZM19.8824 26.7647C16.0865 26.7647 13 23.6782 13 19.8824C13 16.0865 16.0865 13 19.8824 13C23.6782 13 26.7647 16.0865 26.7647 19.8824C26.7647 23.6782 23.6782 26.7647 19.8824 26.7647ZM25.7059 19.8824C25.7059 16.6688 23.0959 14.0588 19.8824 14.0588C16.6688 14.0588 14.0588 16.6688 14.0588 19.8824C14.0588 23.0959 16.6688 25.7059 19.8824 25.7059C23.0959 25.7059 25.7059 23.0959 25.7059 19.8824ZM23.0588 19.3529H20.4118V16.7059C20.4118 16.4147 20.1735 16.1765 19.8824 16.1765C19.5912 16.1765 19.3529 16.4147 19.3529 16.7059V19.3529H16.7059C16.4147 19.3529 16.1765 19.5912 16.1765 19.8824C16.1765 20.1735 16.4147 20.4118 16.7059 20.4118H19.3529V23.0588C19.3529 23.35 19.5912 23.5882 19.8824 23.5882C20.1735 23.5882 20.4118 23.35 20.4118 23.0588V20.4118H23.0588C23.35 20.4118 23.5882 20.1735 23.5882 19.8824C23.5882 19.5912 23.35 19.3529 23.0588 19.3529Z" fill="#303030"/>
</svg>
