<svg width="24" height="25" viewBox="0 0 24 25" fill="none" xmlns="http://www.w3.org/2000/svg">
<path d="M7.93414 4.33203C7.73691 4.33203 7.577 4.49192 7.577 4.68917V6.65346C7.577 6.85069 7.73691 7.0106 7.93414 7.0106C8.13139 7.0106 8.29129 6.85069 8.29129 6.65346V4.68917C8.29129 4.49192 8.13139 4.33203 7.93414 4.33203ZM15.077 4.33203C14.8798 4.33203 14.7199 4.49192 14.7199 4.68917V6.65346C14.7199 6.85069 14.8798 7.0106 15.077 7.0106C15.2743 7.0106 15.4341 6.85069 15.4341 6.65346V4.68917C15.4341 4.49192 15.2743 4.33203 15.077 4.33203ZM5.43414 5.7606C4.6403 5.7606 4 6.40085 4 7.19474V10.4035H19V7.19474C19 6.40085 18.3597 5.7606 17.5659 5.7606H16.5H15.7913V7.02733C16.2173 7.27555 16.5056 7.73539 16.5056 8.2606C16.5056 9.04535 15.8618 9.68917 15.077 9.68917C14.2923 9.68917 13.6484 9.04535 13.6484 8.2606C13.6484 7.73539 13.9367 7.27555 14.3627 7.02733V5.7606H8.64286V7.02176C9.07252 7.26901 9.36271 7.73266 9.36271 8.2606C9.36271 9.04535 8.71896 9.68917 7.93414 9.68917C7.14945 9.68917 6.50557 9.04535 6.50557 8.2606C6.50557 7.73708 6.79054 7.27612 7.21429 7.02733V5.7606H5.43414ZM7.93414 7.54632C7.5355 7.54632 7.21986 7.86187 7.21986 8.2606C7.21986 8.65932 7.5355 8.97489 7.93414 8.97489C8.33286 8.97489 8.64843 8.65932 8.64843 8.2606C8.64843 7.86187 8.33286 7.54632 7.93414 7.54632ZM15.077 7.54632C14.6784 7.54632 14.3627 7.86187 14.3627 8.2606C14.3627 8.65932 14.6784 8.97489 15.077 8.97489C15.4757 8.97489 15.7913 8.65932 15.7913 8.2606C15.7913 7.86187 15.4757 7.54632 15.077 7.54632ZM4 11.1177V18.6122C4 19.4061 4.64029 20.0463 5.43414 20.0463H17.5659C18.3597 20.0463 19 19.4061 19 18.6122V11.1177H4Z" fill="#6D6D6D"/>
</svg>
