<svg width="24" height="24" viewBox="0 0 24 24" fill="none" xmlns="http://www.w3.org/2000/svg">
<path d="M12.0128 14.5632C13.2906 14.5632 14.3264 13.5274 14.3264 12.2496C14.3264 10.9719 13.2906 9.93604 12.0128 9.93604C10.7351 9.93604 9.69922 10.9719 9.69922 12.2496C9.69922 13.5274 10.7351 14.5632 12.0128 14.5632Z" fill="#303030"/>
<path d="M17.42 8.16001C17.2952 7.83841 17.1416 7.60321 16.9016 7.36321C16.6568 7.11841 16.4264 6.96961 16.1048 6.84481C15.86 6.74881 15.4952 6.63841 14.8184 6.60481C14.0888 6.57121 13.868 6.56641 12.0152 6.56641C10.1624 6.56641 9.94163 6.57121 9.21203 6.60481C8.53523 6.63361 8.17043 6.74881 7.92563 6.84481C7.60403 6.96961 7.36883 7.12321 7.12883 7.36321C6.88403 7.60801 6.73523 7.83841 6.61043 8.16001C6.51443 8.40481 6.40403 8.76961 6.37043 9.44641C6.33683 10.176 6.33203 10.3968 6.33203 12.2496C6.33203 14.1024 6.33683 14.3232 6.37043 15.0528C6.39923 15.7296 6.51443 16.0944 6.61043 16.3392C6.73523 16.6608 6.88883 16.896 7.12883 17.136C7.37363 17.3808 7.60403 17.5296 7.92563 17.6544C8.17043 17.7504 8.53523 17.8608 9.21203 17.8944C9.94163 17.928 10.1624 17.9328 12.0152 17.9328C13.868 17.9328 14.0888 17.928 14.8184 17.8944C15.4952 17.8656 15.86 17.7504 16.1048 17.6544C16.4264 17.5296 16.6616 17.376 16.9016 17.136C17.1464 16.8912 17.2952 16.6608 17.42 16.3392C17.516 16.0944 17.6264 15.7296 17.66 15.0528C17.6936 14.3232 17.6984 14.1024 17.6984 12.2496C17.6984 10.3968 17.6936 10.176 17.66 9.44641C17.6312 8.76961 17.516 8.40481 17.42 8.16001ZM12.0152 15.816C10.0472 15.816 8.45363 14.2224 8.45363 12.2544C8.45363 10.2864 10.0472 8.69281 12.0152 8.69281C13.9832 8.69281 15.5768 10.2864 15.5768 12.2544C15.5768 14.2176 13.9784 15.816 12.0152 15.816ZM15.716 9.37921C15.2552 9.37921 14.8856 9.00481 14.8856 8.54881C14.8856 8.08801 15.26 7.71841 15.716 7.71841C16.1768 7.71841 16.5464 8.09281 16.5464 8.54881C16.5512 9.00961 16.1768 9.37921 15.716 9.37921Z" fill="#303030"/>
<path d="M12 0C5.3712 0 0 5.3712 0 12C0 18.6288 5.3712 24 12 24C18.6288 24 24 18.6288 24 12C24 5.3712 18.6288 0 12 0ZM18.9072 15.1104C18.8736 15.8496 18.7584 16.3536 18.5856 16.7952C18.408 17.2512 18.1728 17.64 17.784 18.024C17.4 18.408 17.0112 18.648 16.5552 18.8256C16.1136 18.9984 15.6096 19.1136 14.8704 19.1472C14.1312 19.1808 13.896 19.1904 12.0096 19.1904C10.1232 19.1904 9.888 19.1808 9.1488 19.1472C8.4096 19.1136 7.9056 18.9984 7.464 18.8256C7.008 18.648 6.6192 18.4128 6.2352 18.024C5.8512 17.64 5.6112 17.2512 5.4336 16.7952C5.2608 16.3536 5.1456 15.8496 5.112 15.1104C5.0784 14.3712 5.0688 14.136 5.0688 12.2496C5.0688 10.3632 5.0784 10.128 5.112 9.3888C5.1456 8.6496 5.2608 8.1456 5.4336 7.704C5.6112 7.248 5.8464 6.8592 6.2352 6.4752C6.6192 6.0912 7.008 5.8512 7.464 5.6736C7.9056 5.5008 8.4096 5.3856 9.1488 5.352C9.888 5.3184 10.1232 5.3088 12.0096 5.3088C13.896 5.3088 14.1312 5.3184 14.8704 5.352C15.6096 5.3856 16.1136 5.5008 16.5552 5.6736C17.0112 5.8512 17.4 6.0864 17.784 6.4752C18.168 6.8592 18.408 7.248 18.5856 7.704C18.7584 8.1456 18.8736 8.6496 18.9072 9.3888C18.9408 10.128 18.9504 10.3632 18.9504 12.2496C18.9504 14.136 18.9408 14.3712 18.9072 15.1104Z" fill="#303030"/>
</svg>
