<svg width="640" height="480" viewBox="0 0 640 480" fill="none" xmlns="http://www.w3.org/2000/svg">
<g clip-path="url(#clip0_8_12)">
<path d="M-160.64 0H801.939V481.289H-160.64V0Z" fill="#000066"/>
<path d="M-160.64 0V53.8094L694.323 481.291H801.939V427.484L-53.0241 0H-160.64ZM801.939 0V53.8084L-53.0241 481.289H-160.64V427.481L694.323 0H801.939Z" fill="white"/>
<path d="M240.434 0V481.289H400.864V0H240.434V0ZM-160.64 160.43V320.86H801.939V160.43H-160.64Z" fill="white"/>
<path d="M-160.64 192.516V288.774H801.939V192.516H-160.64ZM272.521 0V481.289H368.777V0H272.521V0ZM-160.64 481.289L160.22 320.86H231.964L-88.8955 481.289H-160.64ZM-160.64 0L160.22 160.43H88.475L-160.64 35.8742V0ZM409.335 160.43L730.194 0H801.939L481.079 160.43H409.335ZM801.939 481.289L481.079 320.86H552.824L801.939 445.417V481.289Z" fill="#CC0000"/>
</g>
<defs>
<clipPath id="clip0_8_12">
<rect width="640" height="480" fill="white"/>
</clipPath>
</defs>
</svg>
