<svg width="640" height="480" viewBox="0 0 640 480" fill="none" xmlns="http://www.w3.org/2000/svg">
<path fill-rule="evenodd" clip-rule="evenodd" d="M640 480H0V0H640V480Z" fill="white"/>
<path fill-rule="evenodd" clip-rule="evenodd" d="M325.562 240.432C325.562 298.686 281.411 345.908 226.949 345.908C172.485 345.908 128.336 298.685 128.336 240.432C128.336 182.179 172.486 134.957 226.949 134.957C281.413 134.957 325.562 182.181 325.562 240.432Z" fill="white"/>
<path fill-rule="evenodd" clip-rule="evenodd" d="M449.273 246.553C449.273 322.565 392.27 384.181 321.95 384.181C251.631 384.181 194.627 322.566 194.627 246.553C194.627 170.541 251.63 108.924 321.95 108.924C392.271 108.924 449.272 170.541 449.272 246.553H449.273Z" fill="#C70000"/>
<path fill-rule="evenodd" clip-rule="evenodd" d="M61.4809 118.95L134.81 28.2281L152.183 44.2922L78.8542 135.015L61.4809 118.95ZM85.4963 141.157L158.825 50.4347L176.197 66.4988L102.869 157.221L85.4963 141.157Z" fill="black"/>
<path fill-rule="evenodd" clip-rule="evenodd" d="M61.4809 118.95L134.81 28.2281L152.183 44.2922L78.8542 135.015L61.4809 118.95Z" fill="black"/>
<path fill-rule="evenodd" clip-rule="evenodd" d="M61.4809 118.95L134.81 28.2281L152.183 44.2922L78.8542 135.015L61.4809 118.95ZM110.025 163.838L183.354 73.1157L200.727 89.1807L127.398 179.903L110.025 163.838Z" fill="black"/>
<path fill-rule="evenodd" clip-rule="evenodd" d="M61.4809 118.95L134.81 28.2281L152.183 44.2922L78.8542 135.015L61.4809 118.95Z" fill="black"/>
<path fill-rule="evenodd" clip-rule="evenodd" d="M61.4809 118.95L134.81 28.2281L152.183 44.2922L78.8542 135.015L61.4809 118.95ZM507.475 28.1981L580.227 119.45L562.752 135.387L490 44.1366L507.475 28.1981ZM458.648 72.7322L531.4 163.984L513.926 179.921L441.174 88.6706L458.648 72.7322Z" fill="black"/>
<path fill-rule="evenodd" clip-rule="evenodd" d="M470.781 125.278L539.677 61.7025L552.51 77.596L478.886 148.395L470.781 125.277V125.278Z" fill="white"/>
<path fill-rule="evenodd" clip-rule="evenodd" d="M555.52 349.175L485.035 439.014L467.754 423.639L538.24 333.801L555.52 349.175ZM483.318 50.2312L556.07 141.482L538.596 157.42L465.844 66.1696L483.318 50.2312ZM579.403 370.421L508.916 460.261L491.636 444.887L562.122 355.047L579.403 370.421ZM531.12 327.466L460.634 417.306L443.354 401.931L513.839 312.092L531.12 327.466Z" fill="black"/>
<path fill-rule="evenodd" clip-rule="evenodd" d="M196.478 222.3C200.503 256.963 206.38 295.589 256.255 299.602C274.949 300.8 311.315 294.845 323.8 240.361C340.18 188.021 389.516 172.973 423.091 201.349C442.127 214.629 447.393 235.723 448.757 251.558C447.233 302.411 419.943 346.433 384.927 366.065C344.669 391.658 288.897 392.193 240.041 353.418C218.023 331.321 187.258 290.587 196.478 222.299V222.3Z" fill="#3D5897"/>
<path fill-rule="evenodd" clip-rule="evenodd" d="M486.874 347.841L555.885 411.273L543.096 427.207L466.703 359.847L486.874 347.841Z" fill="white"/>
<path fill-rule="evenodd" clip-rule="evenodd" d="M103.141 335.285L175.893 426.536L158.418 442.474L85.6664 351.223L103.141 335.285Z" fill="black"/>
<path fill-rule="evenodd" clip-rule="evenodd" d="M90.6064 410.334L159.502 346.759L172.335 362.652L98.7115 433.451L90.6064 410.333V410.334Z" fill="white"/>
<path fill-rule="evenodd" clip-rule="evenodd" d="M127.297 313.253L200.05 404.503L182.575 420.441L109.823 329.19L127.297 313.253ZM78.4712 357.787L151.223 449.037L133.749 464.975L60.9962 373.725L78.4712 357.787Z" fill="black"/>
</svg>
