<svg width="640" height="480" viewBox="0 0 640 480" fill="none" xmlns="http://www.w3.org/2000/svg">
<g clip-path="url(#clip0_1_24)">
<path fill-rule="evenodd" clip-rule="evenodd" d="M0 0H912.009V36.9234H0V0ZM0 73.8469H912.009V110.77H0V73.8469ZM0 147.694H912.009V184.617H0V147.694ZM0 221.541H912.009V258.464H0V221.541ZM0 295.387H912.009V332.311H0V295.387ZM0 369.234H912.009V406.158H0V369.234ZM0 443.081H912.009V480.005H0V443.081Z" fill="#BD3D44"/>
<path fill-rule="evenodd" clip-rule="evenodd" d="M0 36.9234H912.009V73.8469H0V36.9234ZM0 110.77H912.009V147.694H0V110.77ZM0 184.617H912.009V221.541H0V184.617ZM0 258.464H912.009V295.387H0V258.464ZM0 332.311H912.009V369.234H0V332.311ZM0 406.158H912.009V443.081H0V406.158Z" fill="white"/>
<path fill-rule="evenodd" clip-rule="evenodd" d="M0 0H364.8V258.459H0V0Z" fill="#192F5D"/>
<path fill-rule="evenodd" clip-rule="evenodd" d="M30.4003 11.0625L33.7191 21.2775H44.4609L35.7703 27.5916L39.09 37.8066L30.3994 31.4934L21.7106 37.8066L25.0294 27.5916L16.3397 21.2775H27.0806L30.4003 11.0625ZM91.2 11.0625L94.5197 21.2775H105.262L96.5709 27.5916L99.8906 37.8066L91.2 31.4934L82.5113 37.8066L85.83 27.5916L77.1403 21.2775H87.8812L91.2 11.0625ZM152.003 11.0625L155.321 21.2775H166.063L157.372 27.5916L160.692 37.8066L152.003 31.4934L143.313 37.8066L146.632 27.5916L137.942 21.2775H148.684L152.003 11.0625ZM212.801 11.0625L216.12 21.2775H226.861L218.171 27.5916L221.49 37.8066L212.801 31.4934L204.111 37.8066L207.43 27.5916L198.74 21.2775H209.482L212.801 11.0625ZM273.603 11.0625L276.922 21.2775H287.663L278.973 27.5916L282.292 37.8066L273.602 31.4934L264.913 37.8066L268.232 27.5916L259.542 21.2775H270.283L273.603 11.0625ZM334.404 11.0625L337.723 21.2775H348.465L339.774 27.5916L343.094 37.8066L334.404 31.4934L325.714 37.8066L329.034 27.5916L320.344 21.2775H331.086L334.404 11.0625ZM60.8016 36.9094L64.1203 47.1244H74.8622L66.1716 53.4375L69.4922 63.6534L60.8016 57.3403L52.1119 63.6534L55.4306 53.4375L46.7409 47.1244H57.4828L60.8016 36.9094ZM121.6 36.9094L124.919 47.1244H135.66L126.97 53.4375L130.289 63.6534L121.6 57.3403L112.91 63.6534L116.229 53.4375L107.539 47.1244H118.281L121.6 36.9094ZM182.402 36.9094L185.721 47.1244H196.462L187.772 53.4375L191.092 63.6534L182.401 57.3403L173.712 63.6534L177.031 53.4375L168.341 47.1244H179.082L182.402 36.9094ZM243.203 36.9094L246.522 47.1244H257.264L248.573 53.4375L251.893 63.6534L243.203 57.3403L234.513 63.6534L237.834 53.4375L229.144 47.1244H239.886L243.203 36.9094ZM304.002 36.9094L307.321 47.1244H318.062L309.372 53.4375L312.691 63.6534L304.002 57.3403L295.312 63.6534L298.631 53.4375L289.941 47.1244H300.683L304.002 36.9094ZM30.4003 62.7553L33.7191 72.9703H44.4609L35.7703 79.2844L39.09 89.4994L30.3994 83.1862L21.7106 89.4994L25.0294 79.2844L16.3397 72.9703H27.0806L30.4003 62.7553ZM91.2 62.7553L94.5197 72.9703H105.262L96.5709 79.2844L99.8906 89.4994L91.2 83.1862L82.5113 89.4994L85.83 79.2844L77.1403 72.9703H87.8812L91.2 62.7553ZM152.003 62.7553L155.321 72.9703H166.063L157.372 79.2844L160.692 89.4994L152.003 83.1862L143.313 89.4994L146.632 79.2844L137.942 72.9703H148.684L152.003 62.7553ZM212.801 62.7553L216.12 72.9703H226.861L218.171 79.2844L221.49 89.4994L212.801 83.1862L204.111 89.4994L207.43 79.2844L198.74 72.9703H209.482L212.801 62.7553ZM273.603 62.7553L276.922 72.9703H287.663L278.973 79.2844L282.292 89.4994L273.602 83.1862L264.913 89.4994L268.232 79.2844L259.542 72.9703H270.283L273.603 62.7553ZM334.404 62.7553L337.723 72.9703H348.465L339.774 79.2844L343.094 89.4994L334.404 83.1862L325.714 89.4994L329.034 79.2844L320.344 72.9703H331.086L334.404 62.7553ZM60.8016 88.6013L64.1203 98.8172H74.8622L66.1716 105.13L69.4922 115.346L60.8016 109.033L52.1119 115.346L55.4306 105.13L46.7409 98.8172H57.4828L60.8016 88.6013ZM121.6 88.6013L124.919 98.8172H135.66L126.97 105.13L130.289 115.346L121.6 109.033L112.91 115.346L116.229 105.13L107.539 98.8172H118.281L121.6 88.6013ZM182.402 88.6013L185.721 98.8172H196.462L187.772 105.13L191.092 115.346L182.401 109.033L173.712 115.346L177.031 105.13L168.341 98.8172H179.082L182.402 88.6013ZM243.203 88.6013L246.522 98.8172H257.264L248.573 105.13L251.893 115.346L243.203 109.033L234.513 115.346L237.833 105.13L229.143 98.8172H239.885L243.203 88.6013ZM304.002 88.6013L307.321 98.8172H318.062L309.372 105.13L312.691 115.346L304.002 109.033L295.312 115.346L298.631 105.13L289.941 98.8172H300.683L304.002 88.6013ZM30.4003 114.448L33.7191 124.663H44.4609L35.7703 130.977L39.09 141.192L30.3994 134.879L21.7106 141.192L25.0294 130.977L16.3397 124.663H27.0806L30.4003 114.448ZM91.2 114.448L94.5197 124.663H105.262L96.5709 130.977L99.8906 141.192L91.2 134.879L82.5113 141.192L85.83 130.977L77.1403 124.663H87.8812L91.2 114.448ZM152.003 114.448L155.321 124.663H166.063L157.372 130.977L160.692 141.192L152.003 134.879L143.313 141.192L146.632 130.977L137.942 124.663H148.684L152.003 114.448ZM212.801 114.448L216.12 124.663H226.861L218.171 130.977L221.49 141.192L212.801 134.879L204.111 141.192L207.43 130.977L198.74 124.663H209.482L212.801 114.448ZM273.603 114.448L276.922 124.663H287.663L278.973 130.977L282.292 141.192L273.602 134.879L264.913 141.192L268.232 130.977L259.542 124.663H270.283L273.603 114.448ZM334.404 114.448L337.723 124.663H348.465L339.774 130.977L343.094 141.192L334.404 134.879L325.714 141.192L329.034 130.977L320.344 124.663H331.086L334.404 114.448ZM60.8016 140.294L64.1203 150.51H74.8622L66.1716 156.823L69.4922 167.039L60.8016 160.726L52.1119 167.039L55.4306 156.823L46.7409 150.51H57.4828L60.8016 140.294ZM121.6 140.294L124.919 150.51H135.66L126.97 156.823L130.289 167.039L121.6 160.726L112.91 167.039L116.229 156.823L107.539 150.51H118.281L121.6 140.294ZM182.402 140.294L185.721 150.51H196.462L187.772 156.823L191.092 167.039L182.401 160.726L173.712 167.039L177.031 156.823L168.341 150.51H179.082L182.402 140.294ZM243.203 140.294L246.522 150.51H257.264L248.573 156.823L251.893 167.039L243.203 160.726L234.513 167.039L237.833 156.823L229.143 150.51H239.885L243.203 140.294ZM304.002 140.294L307.321 150.51H318.062L309.372 156.823L312.691 167.039L304.002 160.726L295.312 167.039L298.631 156.823L289.941 150.51H300.683L304.002 140.294ZM30.4003 166.141L33.7191 176.356H44.4609L35.7703 182.67L39.09 192.885L30.3994 186.572L21.7106 192.885L25.0294 182.67L16.3397 176.356H27.0806L30.4003 166.141ZM91.2 166.141L94.5197 176.356H105.262L96.5709 182.67L99.8906 192.885L91.2 186.572L82.5113 192.885L85.83 182.67L77.1403 176.356H87.8812L91.2 166.141ZM152.003 166.141L155.321 176.356H166.063L157.372 182.67L160.692 192.885L152.003 186.572L143.313 192.885L146.632 182.67L137.942 176.356H148.684L152.003 166.141ZM212.801 166.141L216.12 176.356H226.861L218.171 182.67L221.49 192.885L212.801 186.572L204.111 192.885L207.43 182.67L198.74 176.356H209.482L212.801 166.141ZM273.603 166.141L276.922 176.356H287.663L278.973 182.67L282.292 192.885L273.602 186.572L264.913 192.885L268.232 182.67L259.542 176.356H270.283L273.603 166.141ZM334.404 166.141L337.723 176.356H348.465L339.774 182.67L343.094 192.885L334.404 186.572L325.714 192.885L329.034 182.67L320.344 176.356H331.086L334.404 166.141ZM60.8016 191.987L64.1203 202.203H74.8622L66.1716 208.516L69.4922 218.732L60.8016 212.419L52.1119 218.732L55.4306 208.516L46.7409 202.203H57.4828L60.8016 191.987ZM121.6 191.987L124.919 202.203H135.66L126.97 208.516L130.289 218.732L121.6 212.419L112.91 218.732L116.229 208.516L107.539 202.203H118.281L121.6 191.987ZM182.402 191.987L185.721 202.203H196.462L187.772 208.516L191.092 218.732L182.401 212.419L173.712 218.732L177.031 208.516L168.341 202.203H179.082L182.402 191.987ZM243.203 191.987L246.522 202.203H257.264L248.573 208.516L251.893 218.732L243.203 212.419L234.513 218.732L237.833 208.516L229.143 202.203H239.885L243.203 191.987ZM304.002 191.987L307.321 202.203H318.062L309.372 208.516L312.691 218.732L304.002 212.419L295.312 218.732L298.631 208.516L289.941 202.203H300.683L304.002 191.987ZM30.4003 217.834L33.7191 228.049H44.4609L35.7703 234.363L39.09 244.578L30.3994 238.265L21.7106 244.578L25.0294 234.363L16.3397 228.049H27.0806L30.4003 217.834ZM91.2 217.834L94.5197 228.049H105.262L96.5709 234.363L99.8906 244.578L91.2 238.265L82.5113 244.578L85.83 234.363L77.1403 228.049H87.8812L91.2 217.834ZM152.003 217.834L155.321 228.049H166.063L157.372 234.363L160.692 244.578L152.003 238.265L143.313 244.578L146.632 234.363L137.942 228.049H148.684L152.003 217.834ZM212.801 217.834L216.12 228.049H226.861L218.171 234.363L221.49 244.578L212.801 238.265L204.111 244.578L207.43 234.363L198.74 228.049H209.482L212.801 217.834ZM273.603 217.834L276.922 228.049H287.663L278.973 234.363L282.292 244.578L273.602 238.265L264.913 244.578L268.232 234.363L259.542 228.049H270.283L273.603 217.834ZM334.404 217.834L337.723 228.049H348.465L339.774 234.363L343.094 244.578L334.404 238.265L325.714 244.578L329.034 234.363L320.344 228.049H331.086L334.404 217.834Z" fill="white"/>
</g>
<defs>
<clipPath id="clip0_1_24">
<rect width="640" height="480" fill="white"/>
</clipPath>
</defs>
</svg>
