<svg width="640" height="480" viewBox="0 0 640 480" fill="none" xmlns="http://www.w3.org/2000/svg">
<g clip-path="url(#clip0_1_5)">
<path d="M150.184 0H489.818V480H150.184V0Z" fill="white"/>
<path d="M-19.632 0H150.185V480H-19.632V0ZM489.818 0H659.634V480H489.819L489.818 0ZM200.971 231.947L187.783 236.454L249.148 290.31C253.789 304.151 247.536 308.231 243.551 315.491L310.17 307.035L308.436 374.077L322.234 373.681L319.225 307.195L385.909 315.1C381.782 306.384 378.109 301.757 381.927 287.821L443.253 236.797L432.521 232.912C423.746 226.141 436.313 200.302 438.208 183.995C438.208 183.995 402.401 196.309 400.054 189.865L390.935 172.348L358.36 208.132C354.801 208.986 353.285 207.57 352.45 204.562L367.499 129.782L343.668 143.185C341.673 144.038 339.678 143.303 338.364 140.978L315.442 94.9838L291.807 142.749C290.026 144.461 288.242 144.659 286.762 143.496L264.071 130.766L277.692 204.963C276.609 207.907 274.014 208.736 270.961 207.142L239.821 171.763C235.748 178.29 232.987 188.953 227.603 191.343C222.218 193.581 204.184 186.821 192.097 184.183C196.226 199.085 209.137 223.841 200.966 231.955L200.971 231.947Z" fill="#BF0A30"/>
</g>
<defs>
<clipPath id="clip0_1_5">
<rect width="640" height="480" fill="white"/>
</clipPath>
</defs>
</svg>
