<svg width="640" height="480" viewBox="0 0 640 480" fill="none" xmlns="http://www.w3.org/2000/svg">
<path d="M0 0H640V480H0V0Z" fill="#DE2910"/>
<path d="M77.6635 178.32L119.999 48L162.334 178.32L51.4559 97.68H188.542L77.6635 178.32Z" fill="#FFDE00"/>
<path d="M264.22 50.1092L219.704 60.3318L249.713 25.8988L245.653 71.419L222.166 32.2212L264.22 50.1092Z" fill="#FFDE00"/>
<path d="M309.186 107.024L264.19 99.1818L305.205 79.0827L283.808 119.465L277.361 74.2261L309.186 107.024Z" fill="#FFDE00"/>
<path d="M302.769 186.925L264.884 161.413L310.53 159.789L274.524 187.934L287.088 143.999L302.769 186.925Z" fill="#FFDE00"/>
<path d="M246.289 239.22L221.198 201.055L263.928 217.187L219.846 229.241L248.404 193.568L246.289 239.22Z" fill="#FFDE00"/>
</svg>
