<svg width="640" height="480" viewBox="0 0 640 480" fill="none" xmlns="http://www.w3.org/2000/svg">
<path d="M0 239.644C0 106.484 143.809 -0.711081 323.174 0.00355247C497.46 0.718186 640.317 107.675 639.999 242.027C639.365 373.281 494.92 480 317.777 480C143.492 479.762 0 371.375 0 239.644V239.644ZM466.984 138.881C422.222 138.881 377.777 138.881 333.333 138.881C333.333 167.228 333.651 194.861 333.016 222.731C333.016 228.21 335.238 229.878 342.539 229.878C387.301 229.64 432.063 229.878 476.825 229.64C479.365 229.64 481.904 229.401 485.396 229.163C484.444 198.196 478.412 168.181 466.984 138.881ZM306.031 138.881C261.905 138.881 217.46 138.881 173.333 138.881C163.174 159.605 152.381 214.632 155.873 229.401C205.714 229.401 255.555 229.401 306.349 229.401C306.032 199.387 306.031 169.61 306.031 138.881V138.881ZM173.016 340.646C217.778 340.646 261.905 340.646 306.031 340.646C306.031 310.393 306.031 280.379 306.031 250.364C255.238 250.364 205.397 250.364 155.238 250.364C153.016 268.468 162.857 318.254 173.016 340.646V340.646ZM333.968 249.888C333.968 280.617 333.968 310.632 333.968 340.646C378.73 340.646 422.857 340.646 466.666 340.646C477.777 316.11 487.619 263.227 483.809 249.888C434.285 249.888 384.762 249.888 333.968 249.888ZM496.825 138.405C502.539 168.657 508.571 198.91 514.285 229.163C545.714 229.163 579.047 229.163 612.38 229.163C610.158 197.957 600.317 169.134 581.904 141.978C580.952 140.31 577.777 138.643 575.555 138.643C548.888 138.405 521.904 138.405 496.825 138.405V138.405ZM144.444 138.405C117.46 138.405 91.111 138.405 64.4444 138.643C61.9047 138.643 58.4127 141.025 57.1428 142.931C50.4761 154.841 42.8571 166.513 38.7301 178.662C33.0159 195.099 29.8413 211.774 25.3968 229.163C61.2698 229.163 94.2857 229.163 126.984 229.163C129.206 213.679 130.476 198.672 133.333 183.903C136.19 168.896 140.317 153.888 144.444 138.405L144.444 138.405ZM27.3016 250.126C27.9365 277.282 40.9523 314.443 57.1428 337.073C58.4126 338.741 61.2698 340.646 63.1746 340.646C90.4761 340.884 117.46 340.884 142.857 340.884C136.825 310.632 131.111 280.379 125.079 250.126C93.6507 250.126 60.9523 250.126 27.3015 250.126H27.3016ZM612.698 250.364C578.73 250.364 545.396 250.364 514.603 250.364C508.571 281.093 502.857 310.87 496.825 341.123C521.904 341.123 548.888 341.123 575.555 340.884C577.777 340.884 580.952 339.217 581.904 337.549C600.317 310.393 610.476 281.57 612.698 250.364V250.364ZM182.857 361.371C183.174 362.8 183.492 364.229 183.809 365.182C193.651 383.762 205.714 401.628 222.222 417.35C241.587 436.169 264.762 451.176 296.508 457.132C299.365 457.608 302.539 457.846 305.714 458.085C305.714 425.211 305.714 393.291 305.714 361.132C264.762 361.371 224.127 361.371 182.857 361.371V361.371ZM333.65 458.323C379.047 457.37 449.523 401.39 456.508 361.609C415.555 361.609 374.603 361.609 333.65 361.609C333.65 394.006 333.65 425.926 333.65 458.323V458.323ZM457.143 118.157C456.825 116.727 456.825 115.774 456.19 114.822C446.349 96.0029 433.968 78.137 417.46 62.1768C399.047 44.5491 377.46 30.2564 348.571 23.3483C344.127 22.1573 339.047 21.6808 333.968 20.9662C333.968 54.3158 333.968 86.2362 333.968 118.395C375.238 118.157 415.873 118.157 457.143 118.157ZM183.492 117.918C224.444 117.918 265.397 117.918 306.031 117.918C306.031 85.5215 306.031 53.6012 306.031 21.6808C264.762 19.5369 191.428 77.1841 183.492 117.918ZM220.317 445.936C190.794 422.591 171.111 394.958 156.19 365.42C154.286 361.847 151.746 361.132 146.984 361.132C125.397 361.371 103.809 361.132 82.2222 361.132C80.3174 361.132 78.4126 361.609 75.873 361.847C112.698 401.867 160.317 429.737 220.317 445.936V445.936ZM420.635 446.412C479.682 429.737 527.301 401.867 564.126 361.371C537.142 361.371 511.746 361.371 487.301 361.371C477.46 376.378 469.206 391.624 458.412 405.678C446.984 419.971 433.333 432.834 420.635 446.412V446.412ZM564.444 118.395C526.984 77.6606 479.365 49.5516 419.365 33.3532C423.809 37.8792 428.889 41.9288 433.65 46.2166C455.555 66.4646 471.111 89.0947 483.492 113.392C484.444 115.298 487.619 118.157 489.841 118.157C513.968 118.395 538.412 118.395 564.444 118.395V118.395ZM153.968 118.157C169.206 86.9508 189.524 57.889 220.317 33.3532C160 49.7898 112.063 77.6606 75.5555 118.157C102.857 118.157 127.936 118.157 153.968 118.157Z" fill="black"/>
</svg>
