<svg width="68" height="80" viewBox="0 0 68 80" fill="none" xmlns="http://www.w3.org/2000/svg">
<path d="M5.5219 44.5218C7.04225 48.5683 9.3933 52.2529 12.4242 55.339L14.7709 57.6816L34.5114 77.318L37.9625 73.873L49.8689 61.9534L56.4605 55.3735C66.7962 45.0617 68.5332 28.9527 60.6328 16.6815C52.7324 4.41021 37.3314 -0.704247 23.6411 4.39707C9.95091 9.49838 1.6744 23.4357 3.76183 37.873C4.09427 40.1487 4.68475 42.3793 5.5219 44.5218ZM34.5114 23.094C39.4938 23.0651 43.7903 26.5829 44.7365 31.466C45.6828 36.3492 43.0105 41.2126 38.3766 43.0405C37.1424 43.512 35.8329 43.757 34.5114 43.7639C28.7934 43.7639 24.158 39.1368 24.158 33.429C24.158 27.7212 28.7934 23.094 34.5114 23.094Z" fill="#6D7D58" stroke="#E6E6E6"/>
<path d="M51 19.394H17V53.3334H51V19.394Z" fill="#6D7D58"/>
<mask id="mask0" mask-type="alpha" maskUnits="userSpaceOnUse" x="17" y="12" width="39" height="46">
<path d="M17 12.1211H55.8572V57.4576H17V12.1211Z" fill="white"/>
</mask>
<g mask="url(#mask0)">
<path fill-rule="evenodd" clip-rule="evenodd" d="M22.4774 32.7124C22.7096 32.7373 23.0743 32.7719 23.3369 32.7924C23.5995 32.8129 23.7599 32.8191 23.8679 32.8196C24.1212 32.8451 24.3061 32.7175 24.2501 32.5279C24.0005 32.1709 23.5282 31.9905 22.9627 31.7149C22.7147 31.606 22.5252 31.5262 22.3206 31.4815C22.0671 31.3831 21.9039 31.6453 21.8809 31.9008C21.8749 32.082 21.7427 32.3746 21.9584 32.6202C21.9827 32.6332 22.0142 32.6458 22.0799 32.6593C22.1455 32.6732 22.2451 32.6877 22.4774 32.7124ZM17.5089 14.0882C17.6499 14.1724 17.7779 14.2769 17.9298 14.4452C18.0815 14.6132 18.2569 14.8447 18.467 15.1609C18.6773 15.4766 18.9225 15.877 19.1747 16.2855C19.4268 16.6947 19.6859 17.1121 19.9228 17.468C20.1598 17.8243 20.3745 18.1186 20.5453 18.3219C21.0027 18.8563 21.2627 18.9159 21.5498 18.8755C21.8629 18.8098 22.0844 18.6777 22.3917 18.5377C22.5777 18.4515 22.8139 18.3472 23.1343 18.2352C24.0647 17.9058 25.4376 17.6141 26.5794 17.6529C26.9304 17.662 27.2723 17.6962 27.6746 17.774C28.0769 17.852 28.5395 17.9735 28.878 18.0696C29.2159 18.1658 29.4296 18.2368 29.643 18.3012C29.8567 18.3655 30.0701 18.4235 30.246 18.4568C30.6186 18.5097 30.8573 18.5708 31.1243 18.239C31.2897 17.9976 31.5114 17.4821 31.1531 17.1615C31.0765 17.0969 30.9667 17.0292 30.7417 16.9342C30.2705 16.7349 29.4245 16.4654 28.719 16.3508C28.3548 16.2895 28.003 16.2582 27.6206 16.2518C26.3128 16.2346 24.793 16.4987 23.2539 16.9725C23.5271 16.7077 23.8336 16.478 24.2162 16.2604C24.5982 16.043 25.0563 15.8382 25.7183 15.6188C26.3802 15.3999 27.2459 15.1664 28.148 14.9779C29.0501 14.7896 29.9887 14.6456 30.7652 14.5682C31.5415 14.4906 32.1557 14.4793 32.5403 14.4769C32.9245 14.4747 33.079 14.4816 33.2613 14.4701C33.6479 14.4507 34.0236 14.3352 34.3741 13.9182C34.5601 13.7119 34.7703 13.4352 34.9253 13.2279C35.2058 12.8253 35.5123 12.5199 36.045 12.1211L36.4524 14.9055C37.8921 14.9618 39.3209 15.2517 40.7502 15.8018C42.1795 16.3519 43.6092 17.1624 44.9827 18.1629C46.3566 19.1637 47.6738 20.3545 48.7956 21.7585C49.9171 23.163 50.8426 24.7808 51.5877 26.4569C52.3328 28.133 52.8981 29.8678 53.1892 31.6038C53.4802 33.3397 53.4974 35.0773 53.2869 36.9066C53.0767 38.7364 52.6381 40.6583 52.042 42.3403C51.446 44.0226 50.692 45.4652 49.7209 46.8125C48.7499 48.1599 47.5616 49.4122 46.2291 50.4555C44.897 51.4984 43.421 52.3325 41.819 53.0078C40.217 53.6832 38.4895 54.2 36.8025 54.448C35.1157 54.6965 33.4699 54.6762 31.7348 54.4233C30.0002 54.1702 28.1768 53.6847 26.5219 53.0063C24.8672 52.3285 23.3814 51.4583 22.2438 50.6059C21.1063 49.754 20.3165 48.9195 19.6881 47.9729C20.675 48.1861 21.7956 48.2133 22.8781 48.0613C23.3994 47.9881 23.8845 47.8757 24.3189 47.7322C25.4993 47.3296 26.4585 46.6979 27.4423 45.2928C27.7647 44.8258 28.096 44.2552 28.4589 43.5067C28.8218 42.7581 29.2163 41.8306 29.4916 41.1885C29.7666 40.5467 29.9227 40.1889 30.1395 39.7598C30.3567 39.3308 30.6348 38.8298 30.9611 38.3739C31.2877 37.9175 31.6626 37.5063 32.1555 37.0371C32.6488 36.5677 33.2597 36.0405 33.7528 35.6104C34.2462 35.1802 34.6213 34.8471 35.0121 34.459C35.4031 34.0706 35.8098 33.6276 36.1435 33.1869C36.4772 32.7468 36.7378 32.3091 36.9805 31.7917C37.668 30.3034 38.2242 28.2748 38.135 26.5941C38.1117 26.0471 38.0358 25.493 37.9036 24.9085C37.7714 24.3245 37.5828 23.7091 37.4012 23.2212C37.2196 22.7337 37.0443 22.3732 36.9114 22.1494C36.6663 21.7451 36.5474 21.7343 36.3935 21.8083C36.3238 21.8491 36.2516 21.9228 36.2013 22.0348C36.1513 22.1472 36.1232 22.2978 36.1601 22.6281C36.1976 22.9581 36.2998 23.4672 36.3707 23.8092C36.4413 24.1507 36.4799 24.3247 36.5405 24.7365C36.6694 25.5519 36.802 27.0097 36.5997 28.1244C36.4371 29.1594 36.1475 30.1213 35.6119 31.0535C35.1363 31.9099 34.2749 32.8894 33.203 33.8651C32.682 34.34 32.1506 34.777 31.7789 35.0848C31.4069 35.3923 31.1943 35.5707 30.8522 35.9416C30.5097 36.3124 30.0378 36.8751 29.6282 37.4247C29.2188 37.9746 28.872 38.5112 28.5505 39.1795C28.229 39.8471 27.9325 40.6459 27.755 41.1317C27.5776 41.6169 27.5194 41.7893 27.4016 42.0837C27.2838 42.3783 27.1071 42.7941 26.9395 43.0959C26.3613 44.0625 25.8906 44.0978 25.3342 44.1097C24.9677 44.0834 24.541 43.9692 24.1613 43.6425C24.0034 43.5031 23.8697 43.3323 23.7364 43.0401C23.6026 42.748 23.4691 42.3339 23.354 41.9172C23.0216 40.7407 22.7435 38.997 21.837 37.4754C21.562 37.004 21.2368 36.5432 20.8227 36.0655C20.4082 35.5877 19.9045 35.0925 19.5774 34.7876C19.2502 34.4826 19.0998 34.368 18.8983 34.1841C18.697 34.0004 18.4451 33.7484 18.2261 33.4757C18.0071 33.203 17.8211 32.9095 17.6637 32.5651C17.5065 32.2207 17.378 31.8247 17.2704 31.2912C17.1633 30.7578 17.0769 30.0865 17.0322 28.9201C16.9872 27.7538 16.9832 26.092 17.0603 23.5369C17.1376 20.9815 17.2959 17.533 17.5089 14.0882Z" fill="white"/>
</g>
</svg>
