<svg width="250" height="250" viewBox="0 0 250 250" fill="none" xmlns="http://www.w3.org/2000/svg">
<g filter="url(#filter0_d)">
<path d="M189 121.879C188.858 158.436 157.853 181.142 125.569 180.999C93.1426 180.857 60.8582 160.293 61.0005 121.593C61.2849 73.6111 134.387 32.3409 152.165 30.056C153.302 29.9132 154.156 30.056 154.867 30.3416C156.573 31.0556 157.142 33.1977 156.147 36.7678C146.333 76.0388 188.147 81.6081 189 121.879Z" fill="#FFB83A"/>
<path d="M151.331 35.4247L151.312 35.4899L151.296 35.5556C148.609 46.308 149.409 55.07 152.35 62.7574C155.222 70.2643 160.038 76.4489 164.714 82.1266C165.299 82.8379 165.884 83.5439 166.467 84.2467C175.349 94.9627 183.62 104.942 184 121.922C183.835 155.069 155.749 176.133 125.591 175.999C110.367 175.932 95.3518 171.062 84.255 161.899C73.269 152.829 65.9366 139.42 66.0004 121.617C66.1312 100.026 82.8514 79.0006 103.166 62.5763C113.163 54.494 123.702 47.7969 132.794 42.9968C140.955 38.689 147.527 36.1348 151.371 35.2744C151.358 35.3235 151.345 35.3736 151.331 35.4247Z" stroke="white" stroke-width="10"/>
</g>
<rect x="90" y="172" width="69" height="18" fill="white"/>
<path d="M128.863 94.3154C128.795 93.0342 128.658 91.6183 128.522 90H128.454L125.32 94.0456H124.366C118.507 94.0456 112.171 95.2593 106.925 98.2261L106.993 98.361C109.446 97.4844 112.103 97.0124 114.692 97.0124C117.281 97.0124 119.802 97.4844 122.05 98.361L120.551 100.316C118.575 99.5073 116.191 99.0353 113.806 99.0353C110.536 99.0353 107.334 99.9118 105.085 101.26L99.0901 93.2365H99.0219C98.4088 100.316 98 108.205 98 112.251C98 121.421 100.18 123.242 102.701 125.332C104.677 126.95 106.925 128.838 108.356 134.772C109.241 138.413 109.855 139.222 112.035 139.222C113.874 139.222 114.692 138.548 115.509 135.446C117.076 129.58 120.347 126.613 123.344 123.983C126.751 120.949 129.885 118.387 129.885 112.588C129.885 109.149 129.408 106.25 128.386 102.676C130.907 105.441 132.474 109.082 132.474 113.465C132.474 118.05 130.77 121.219 125.252 126.006C121.028 129.715 119.733 131.266 117.962 136.862C116.668 140.908 114.351 145.156 107.947 145.156C106.039 145.156 103.859 144.818 101.952 144.009L101.883 144.144C107.538 151.022 116.395 155 125.933 155C143.511 155 156.592 141.649 156.592 124.388C156.592 108.61 145.555 96.2033 128.863 94.3154ZM109.378 121.421C107.606 120.949 105.903 120.747 103.927 120.747L103.859 120.679C104.064 119.668 104.54 118.791 105.085 118.185C106.789 118.724 108.219 119.735 109.378 121.286V121.421Z" fill="#E42224"/>
<path d="M111.434 202.425L111.435 202.457L111.435 202.49C111.544 209.933 118.067 215.001 125.045 215.135L125.187 215.138C132.147 215.272 139.233 210.154 139.143 202.473L139.12 188.882L139.12 188.85L139.119 188.817C139.01 181.374 132.487 176.306 125.509 176.171L125.367 176.169C118.407 176.035 111.321 181.152 111.411 188.834L111.434 202.425Z" fill="black" stroke="white" stroke-width="10"/>
<path d="M84.2606 176.876L84.2462 176.882L84.2318 176.887L53.956 188.342C46.7913 191.012 43.2139 198.986 45.8816 206.081C47.9621 211.76 53.3965 215 58.8557 215C60.4079 215 62.0858 214.808 63.8481 214.08L94.0441 202.656C101.219 199.982 104.796 191.989 102.107 184.886C99.3894 177.711 91.331 174.251 84.2606 176.876Z" fill="black" stroke="white" stroke-width="10"/>
<path d="M165.739 176.876L165.754 176.882L165.768 176.887L196.044 188.342C203.209 191.012 206.786 198.986 204.118 206.081C202.038 211.76 196.603 215 191.144 215C189.592 215 187.914 214.808 186.152 214.08L155.956 202.656C148.781 199.982 145.204 191.989 147.893 184.886C150.611 177.711 158.669 174.251 165.739 176.876Z" fill="black" stroke="white" stroke-width="10"/>
<defs>
<filter id="filter0_d" x="57" y="26" width="144" height="167" filterUnits="userSpaceOnUse" color-interpolation-filters="sRGB">
<feFlood flood-opacity="0" result="BackgroundImageFix"/>
<feColorMatrix in="SourceAlpha" type="matrix" values="0 0 0 0 0 0 0 0 0 0 0 0 0 0 0 0 0 0 127 0" result="hardAlpha"/>
<feOffset dx="4" dy="4"/>
<feGaussianBlur stdDeviation="4"/>
<feComposite in2="hardAlpha" operator="out"/>
<feColorMatrix type="matrix" values="0 0 0 0 0 0 0 0 0 0 0 0 0 0 0 0 0 0 0.25 0"/>
<feBlend mode="normal" in2="BackgroundImageFix" result="effect1_dropShadow"/>
<feBlend mode="normal" in="SourceGraphic" in2="effect1_dropShadow" result="shape"/>
</filter>
</defs>
</svg>
