<svg width="250" height="250" viewBox="0 0 250 250" fill="none" xmlns="http://www.w3.org/2000/svg">
<g filter="url(#filter0_d)">
<path d="M190 120.59C190 171.392 125 218 125 218C125 218 60 171.858 60 120.59C60 87.1271 89.1015 60 125 60C160.899 60 190 87.1271 190 120.59Z" fill="#CD1719"/>
<path d="M185 120.59C185 144.034 169.869 167.181 153.788 184.996C145.851 193.789 137.898 201.047 131.924 206.109C129.083 208.517 126.698 210.42 124.986 211.747C123.277 210.432 120.897 208.548 118.063 206.163C112.091 201.139 104.141 193.926 96.2061 185.164C80.1374 167.421 65 144.271 65 120.59C65 90.2135 91.5262 65 125 65C158.474 65 185 90.2135 185 120.59Z" stroke="white" stroke-width="10"/>
</g>
<path d="M129.058 95.6473C128.985 94.2676 128.839 92.7427 128.693 91H128.62L125.263 95.3568H124.241C117.966 95.3568 111.179 96.6639 105.56 99.8589L105.633 100.004C108.26 99.0602 111.106 98.5519 113.879 98.5519C116.652 98.5519 119.352 99.0602 121.76 100.004L120.155 102.11C118.038 101.239 115.484 100.73 112.93 100.73C109.427 100.73 105.998 101.674 103.589 103.127L97.1676 94.4855H97.0946C96.4379 102.11 96 110.606 96 114.963C96 124.838 98.3352 126.799 101.035 129.05C103.152 130.793 105.56 132.826 107.092 139.216C108.041 143.137 108.698 144.008 111.033 144.008C113.003 144.008 113.879 143.282 114.755 139.942C116.433 133.624 119.936 130.429 123.147 127.598C126.796 124.33 130.152 121.571 130.152 115.326C130.152 111.622 129.642 108.5 128.547 104.651C131.247 107.629 132.925 111.55 132.925 116.27C132.925 121.207 131.101 124.62 125.19 129.776C120.666 133.77 119.279 135.44 117.382 141.467C115.995 145.824 113.514 150.398 106.654 150.398C104.611 150.398 102.276 150.035 100.233 149.164L100.16 149.309C106.217 156.716 115.703 161 125.92 161C144.747 161 158.759 146.622 158.759 128.033C158.759 111.041 146.937 97.6805 129.058 95.6473ZM108.187 124.838C106.289 124.33 104.465 124.112 102.349 124.112L102.276 124.039C102.495 122.95 103.006 122.006 103.589 121.353C105.414 121.934 106.946 123.023 108.187 124.693V124.838Z" fill="white"/>
<path d="M140 36C140 27.7158 133.284 21 125 21C116.716 21 110 27.7157 110 36L140 36ZM110 54L110 69L140 69L140 54L110 54ZM110 36L110 54L140 54L140 36L110 36Z" fill="white"/>
<path d="M130 36C130 33.2386 127.761 31 125 31C122.239 31 120 33.2386 120 36H130ZM120 60C120 62.7614 122.239 65 125 65C127.761 65 130 62.7614 130 60H120ZM120 36V60H130V36H120Z" fill="black"/>
<path d="M66.6066 45.3934C60.7487 39.5355 51.2513 39.5355 45.3934 45.3934C39.5355 51.2513 39.5355 60.7487 45.3934 66.6066L66.6066 45.3934ZM62.8934 84.1066L73.5 94.7132L94.7132 73.5L84.1066 62.8934L62.8934 84.1066ZM45.3934 66.6066L62.8934 84.1066L84.1066 62.8934L66.6066 45.3934L45.3934 66.6066Z" fill="white"/>
<path d="M59.5355 52.4645C57.5829 50.5118 54.4171 50.5118 52.4645 52.4645C50.5118 54.4171 50.5118 57.5829 52.4645 59.5355L59.5355 52.4645ZM74.4645 81.5355C76.4171 83.4882 79.5829 83.4882 81.5355 81.5355C83.4882 79.5829 83.4882 76.4171 81.5355 74.4645L74.4645 81.5355ZM52.4645 59.5355L74.4645 81.5355L81.5355 74.4645L59.5355 52.4645L52.4645 59.5355Z" fill="black"/>
<path d="M204.107 66.6066C209.964 60.7487 209.964 51.2513 204.107 45.3934C198.249 39.5355 188.751 39.5355 182.893 45.3934L204.107 66.6066ZM165.393 62.8934L154.787 73.5L176 94.7132L186.607 84.1066L165.393 62.8934ZM182.893 45.3934L165.393 62.8934L186.607 84.1066L204.107 66.6066L182.893 45.3934Z" fill="white"/>
<path d="M197.536 59.5355C199.488 57.5829 199.488 54.4171 197.536 52.4645C195.583 50.5118 192.417 50.5118 190.464 52.4645L197.536 59.5355ZM168.464 74.4645C166.512 76.4171 166.512 79.5829 168.464 81.5355C170.417 83.4882 173.583 83.4882 175.536 81.5355L168.464 74.4645ZM190.464 52.4645L168.464 74.4645L175.536 81.5355L197.536 59.5355L190.464 52.4645Z" fill="black"/>
<defs>
<filter id="filter0_d" x="56" y="56" width="146" height="174" filterUnits="userSpaceOnUse" color-interpolation-filters="sRGB">
<feFlood flood-opacity="0" result="BackgroundImageFix"/>
<feColorMatrix in="SourceAlpha" type="matrix" values="0 0 0 0 0 0 0 0 0 0 0 0 0 0 0 0 0 0 127 0" result="hardAlpha"/>
<feOffset dx="4" dy="4"/>
<feGaussianBlur stdDeviation="4"/>
<feColorMatrix type="matrix" values="0 0 0 0 0 0 0 0 0 0 0 0 0 0 0 0 0 0 0.25 0"/>
<feBlend mode="normal" in2="BackgroundImageFix" result="effect1_dropShadow"/>
<feBlend mode="normal" in="SourceGraphic" in2="effect1_dropShadow" result="shape"/>
</filter>
</defs>
</svg>
